<svg width="688" height="680" viewBox="0 0 688 680" fill="none" xmlns="http://www.w3.org/2000/svg">
<path d="M195.709 42.3004L192.136 -36.9901L166.22 -69.7637L148.703 -4.62174L195.709 42.3004Z" fill="white"/>
<path d="M195.865 53.3831L137.272 -0.156954L95.7721 -5.0063L129.448 53.4429L195.865 53.3831Z" fill="white"/>
<path d="M16.4876 -52.7159L20.061 26.5746L45.9766 59.3482L63.4942 -5.79378L16.4876 -52.7159Z" fill="white"/>
<path d="M11.7143 -66.2354L70.3079 -12.6953L111.808 -7.84599L78.132 -66.2951L11.7143 -66.2354Z" fill="white"/>
<path d="M121.682 67.8621L104.324 27.4639L73.7457 -4.708L57.8901 67.862L121.682 67.8621Z" fill="white"/>
<path d="M335.452 -94.6121L281.912 -36.0185L277.062 5.48108L335.511 -28.1944L335.452 -94.6121Z" fill="white"/>
<path d="M204.843 13.4652L245.241 -3.89237L277.413 -34.4706L204.843 -50.3262L204.843 13.4652Z" fill="white"/>
<path d="M229.354 84.7646L308.644 81.1912L341.418 55.2756L276.276 37.758L229.354 84.7646Z" fill="white"/>
<path d="M215.837 89.5374L269.377 30.9438L274.226 -10.5558L215.777 23.1197L215.837 89.5374Z" fill="white"/>
<path d="M349.931 -20.4271L309.533 -3.06954L277.361 27.5087L349.931 43.3643L349.931 -20.4271Z" fill="white"/>
<path d="M190.779 67.1253L111.489 70.6987L78.7153 96.6143L143.857 114.132L190.779 67.1253Z" fill="white"/>
<path d="M201.859 66.9684L148.319 125.562L143.47 167.062L201.919 133.386L201.859 66.9684Z" fill="white"/>
<path d="M71.2503 175.046L111.648 157.688L143.82 127.11L71.2503 111.254L71.2503 175.046Z" fill="white"/>
<path d="M95.7611 246.345L175.052 242.771L207.825 216.856L142.683 199.338L95.7611 246.345Z" fill="white"/>
<path d="M82.2441 251.117L135.784 192.524L140.633 151.024L82.1843 184.7L82.2441 251.117Z" fill="white"/>
<path d="M216.338 141.153L175.94 158.511L143.768 189.089L216.338 204.945L216.338 141.153Z" fill="white"/>
<path d="M407.545 211.514L403.972 132.223L378.056 99.4494L360.538 164.591L407.545 211.514Z" fill="white"/>
<path d="M407.701 222.596L349.108 169.056L307.608 164.207L341.284 222.656L407.701 222.596Z" fill="white"/>
<path d="M299.625 91.9854L316.983 132.384L347.561 164.555L363.417 91.9854L299.625 91.9854Z" fill="white"/>
<path d="M228.323 116.497L231.897 195.788L257.813 228.562L275.33 163.42L228.323 116.497Z" fill="white"/>
<path d="M223.55 102.978L282.144 156.518L323.643 161.367L289.968 102.918L223.55 102.978Z" fill="white"/>
<path d="M333.517 237.075L316.16 196.677L285.582 164.505L269.726 237.075L333.517 237.075Z" fill="white"/>
<path d="M338.836 369.566L335.263 290.275L309.347 257.502L291.829 322.644L338.836 369.566Z" fill="white"/>
<path d="M338.992 380.648L280.399 327.108L238.899 322.259L272.575 380.708L338.992 380.648Z" fill="white"/>
<path d="M230.916 250.037L248.274 290.436L278.852 322.607L294.708 250.037L230.916 250.037Z" fill="white"/>
<path d="M159.615 274.549L163.188 353.84L189.104 386.614L206.621 321.472L159.615 274.549Z" fill="white"/>
<path d="M154.841 261.03L213.435 314.57L254.934 319.419L221.259 260.97L154.841 261.03Z" fill="white"/>
<path d="M264.808 395.127L247.451 354.729L216.873 322.557L201.017 395.127L264.808 395.127Z" fill="white"/>
<path d="M467.491 232.81L388.2 236.384L355.427 262.299L420.569 279.817L467.491 232.81Z" fill="white"/>
<path d="M478.57 232.653L425.03 291.247L420.181 332.746L478.63 299.071L478.57 232.653Z" fill="white"/>
<path d="M347.962 340.73L388.36 323.373L420.532 292.795L347.962 276.939L347.962 340.73Z" fill="white"/>
<path d="M372.473 412.03L451.763 408.456L484.537 382.541L419.395 365.023L372.473 412.03Z" fill="white"/>
<path d="M358.956 416.802L412.496 358.209L417.345 316.709L358.896 350.385L358.956 416.802Z" fill="white"/>
<path d="M493.053 306.838L452.655 324.196L420.483 354.774L493.053 370.63L493.053 306.838Z" fill="white"/>
<path d="M333.902 394.391L254.611 397.964L221.838 423.88L286.98 441.397L333.902 394.391Z" fill="white"/>
<path d="M344.981 394.233L291.441 452.827L286.592 494.326L345.041 460.651L344.981 394.233Z" fill="white"/>
<path d="M214.373 502.311L254.771 484.953L286.943 454.375L214.373 438.519L214.373 502.311Z" fill="white"/>
<path d="M238.884 573.61L318.174 570.037L350.948 544.121L285.806 526.603L238.884 573.61Z" fill="white"/>
<path d="M225.367 578.383L278.907 519.789L283.756 478.289L225.307 511.965L225.367 578.383Z" fill="white"/>
<path d="M359.465 468.418L319.066 485.776L286.895 516.354L359.465 532.21L359.465 468.418Z" fill="white"/>
<path d="M550.672 538.779L547.099 459.489L521.183 426.715L503.665 491.857L550.672 538.779Z" fill="white"/>
<path d="M550.828 549.862L492.235 496.322L450.735 491.472L484.41 549.922L550.828 549.862Z" fill="white"/>
<path d="M442.752 419.251L460.11 459.649L490.688 491.821L506.543 419.251L442.752 419.251Z" fill="white"/>
<path d="M371.45 443.763L375.024 523.054L400.939 555.827L418.457 490.685L371.45 443.763Z" fill="white"/>
<path d="M366.677 430.244L425.271 483.784L466.77 488.633L433.095 430.184L366.677 430.244Z" fill="white"/>
<path d="M476.644 564.341L459.287 523.943L428.709 491.771L412.853 564.341L476.644 564.341Z" fill="white"/>
<path d="M458.709 713.244L455.136 633.953L429.22 601.18L411.703 666.322L458.709 713.244Z" fill="white"/>
<path d="M458.865 724.326L400.272 670.786L358.772 665.937L392.448 724.386L458.865 724.326Z" fill="white"/>
<path d="M350.789 593.715L368.147 634.114L398.725 666.286L414.581 593.715L350.789 593.715Z" fill="white"/>
<path d="M279.488 618.228L283.061 697.518L308.977 730.292L326.494 665.15L279.488 618.228Z" fill="white"/>
<path d="M274.714 604.708L333.308 658.248L374.808 663.097L341.132 604.648L274.714 604.708Z" fill="white"/>
<path d="M384.682 738.806L367.324 698.407L336.746 666.235L320.89 738.806L384.682 738.806Z" fill="white"/>
<path d="M587.372 576.489L508.082 580.062L475.308 605.978L540.45 623.495L587.372 576.489Z" fill="white"/>
<path d="M598.456 576.332L544.916 634.925L540.067 676.425L598.516 642.749L598.456 576.332Z" fill="white"/>
<path d="M467.843 684.409L508.241 667.051L540.413 636.473L467.843 620.617L467.843 684.409Z" fill="white"/>
<path d="M478.837 760.481L532.377 701.887L537.226 660.388L478.777 694.063L478.837 760.481Z" fill="white"/>
<path d="M612.931 650.516L572.533 667.874L540.361 698.452L612.931 714.308L612.931 650.516Z" fill="white"/>
</svg>
