<svg width="142" height="40" viewBox="0 0 142 40" fill="none" xmlns="http://www.w3.org/2000/svg">
<g id="burner 1">
<path id="Vector" d="M1.26562 39.2218V38.0436C5.81691 38.0436 6.46137 37.1564 6.46137 34.1782V5.04364C6.46137 2.04364 5.81873 1.17818 1.26562 1.17818V0H16.5871C23.738 0 28.4896 3.13273 28.4896 9.71091C28.4896 15.1564 24.9141 18.3327 20.1625 18.9327V19.1782C26.2922 19.5782 30.3101 23.4 30.3101 28.6873C30.3101 36.4436 23.9383 39.2218 16.0992 39.2218H1.26562ZM11.9029 17.9564C13.1226 18.1564 14.3897 18.1564 15.5658 18.1564C19.5854 18.1564 23.1154 15.6 23.1154 9.91091C23.1154 4.22182 19.5418 2.02182 15.6768 2.02182C14.7447 2.02182 13.7234 2.06727 12.8787 2.26727C12.1905 2.42182 11.9029 2.84364 11.9029 3.53273V17.9564ZM11.9029 35.6891C11.9029 36.8673 13.1681 37.2 15.4765 37.2C20.0733 37.2 24.8267 35.4891 24.8267 28.7109C24.8267 21.9327 19.3852 20.1327 15.6113 20.1327C14.3442 20.1327 13.1226 20.1327 11.8792 20.3327V35.6673L11.9029 35.6891ZM47.8307 39.1564L47.7415 35L47.5868 34.9564C45.921 37.6 43.5671 40 40.0808 40C36.5945 40 34.7521 37.2436 34.7521 32.9327V19.1109C34.7521 15.9327 34.5956 15.3327 31.6209 16.2673L31.2877 15.1764L38.8374 12.7327L39.5255 13.3782V32.4436C39.5255 35.3345 40.4139 36.7109 42.28 36.7109C44.2334 36.7109 46.1868 35.0436 47.7633 32.9327V19.1109C47.7633 15.9327 47.676 15.3327 44.6321 16.2673L44.3007 15.1764L51.8941 12.7327L52.5385 13.3782V33.3782C52.5385 36.6673 52.6278 37.2873 55.6698 36.1782L56.114 37.3109L48.8739 40L47.8981 39.1564H47.8307ZM75.1657 14.9564C75.1657 16.8655 74.0333 18.0891 72.7681 18.0891C71.8797 18.0891 71.501 17.7564 70.8565 17.0673C70.2139 16.4218 69.97 16.2436 69.3929 16.2436C68.2605 16.2436 66.9497 17.8673 65.9066 20.8436V33.8891C65.9066 37.2218 66.6384 38 71.1023 38V39.2218H57.8672V38.0436C60.709 38.0436 61.1987 37.3109 61.1987 34.1782V19.0873C61.1987 15.8 61.1987 15.1109 58.2677 16.3327L57.778 15.2L61.6866 13.6218L65.0182 12.2436L65.9066 12.9782V17.6873H66.0613C67.4376 15.0873 69.8371 12.3564 72.5241 12.3564C74.2336 12.3564 75.1657 13.3327 75.1657 14.9564ZM76.8315 38.0436C79.6733 38.0436 80.163 37.3109 80.163 34.1782V19.0873C80.163 15.8 80.163 15.1109 77.232 16.3327L76.7423 15.2L80.6509 13.6218L83.9825 12.2436L84.9146 12.9782V17.4873H85.0693C87.2685 14.4436 89.4877 12.3327 92.8192 12.3327C96.1508 12.3327 98.2152 14.8236 98.2152 19.4436V34.1564C98.2152 37.2891 98.6594 38.0218 101.456 38.0218V39.2H90.4871V38.0218C93.085 38.0218 93.4855 37.2891 93.4855 34.1564V19.7327C93.4855 17.0436 92.4642 15.7564 90.5982 15.7564C88.5993 15.7564 86.8243 17.1327 84.9582 19.5327V34.1327C84.9582 37.2673 85.3588 38 87.9566 38V39.1782H76.897V38L76.8315 38.0436ZM121.154 28.7327C120.132 36.6236 116.803 40 112.182 40C106.653 40 103.167 34.7564 103.167 26.6673C103.167 18.5764 106.586 12.3564 112.426 12.3564C118.266 12.3564 120.842 17.7564 120.842 24.9109H107.919V25C107.919 31.6673 109.985 36.3782 114.048 36.3782C116.246 36.3782 118.8 34.6673 119.976 28.7327H121.154ZM116.156 22.8891C116.156 18.1782 115.313 14.4 112.426 14.4C109.541 14.4 108.275 17.9782 107.964 22.8891H116.156ZM140.739 14.9564C140.739 16.8655 139.606 18.0891 138.341 18.0891C137.453 18.0891 137.074 17.7564 136.43 17.0673C135.787 16.4218 135.543 16.2436 134.966 16.2436C133.832 16.2436 132.523 17.8673 131.48 20.8436V33.8891C131.48 37.2218 132.211 38 136.675 38V39.2218H123.44V38.0436C126.282 38.0436 126.772 37.3109 126.772 34.1782V19.0873C126.772 15.8 126.772 15.1109 123.841 16.3327L123.351 15.2L127.26 13.6218L130.591 12.2436L131.48 12.9782V17.6873H131.634C133.011 15.0873 135.408 12.3564 138.097 12.3564C139.807 12.3564 140.739 13.3327 140.739 14.9564Z" fill="#FCFCFC"/>
</g>
</svg>
