<svg width="18" height="17" viewBox="0 0 18 17" fill="none" xmlns="http://www.w3.org/2000/svg">
<g id="Group">
<path id="Vector" d="M13.4453 2.5H4.82031C3.69531 2.5 1.44531 3.25 1.44531 5.5C1.44531 7.75 3.69531 8.5 4.82031 8.5H13.0703C14.1953 8.5 16.4453 9.25 16.4453 11.5C16.4453 13.75 14.1953 14.5 13.0703 14.5H4.44531" stroke="#171717" stroke-width="1.5" stroke-linecap="round" stroke-linejoin="round"/>
<path id="Vector_2" d="M14.9453 4C15.3431 4 15.7247 3.84196 16.006 3.56066C16.2873 3.27936 16.4453 2.89782 16.4453 2.5C16.4453 2.10218 16.2873 1.72064 16.006 1.43934C15.7247 1.15804 15.3431 1 14.9453 1C14.5475 1 14.166 1.15804 13.8847 1.43934C13.6033 1.72064 13.4453 2.10218 13.4453 2.5C13.4453 2.89782 13.6033 3.27936 13.8847 3.56066C14.166 3.84196 14.5475 4 14.9453 4ZM2.94531 16C3.34314 16 3.72467 15.842 4.00597 15.5607C4.28728 15.2794 4.44531 14.8978 4.44531 14.5C4.44531 14.1022 4.28728 13.7206 4.00597 13.4393C3.72467 13.158 3.34314 13 2.94531 13C2.54749 13 2.16596 13.158 1.88465 13.4393C1.60335 13.7206 1.44531 14.1022 1.44531 14.5C1.44531 14.8978 1.60335 15.2794 1.88465 15.5607C2.16596 15.842 2.54749 16 2.94531 16Z" stroke="#171717" stroke-width="1.5" stroke-linejoin="round"/>
</g>
</svg>
