<svg width="235" height="54" viewBox="0 0 235 54" fill="none" xmlns="http://www.w3.org/2000/svg">
<path d="M48.4906 32.054C47.9648 31.0137 46.6749 28.9544 46.6749 28.9544L32.9297 52.5243L46.6586 42.6439C47.477 42.0891 48.1328 41.3209 48.5935 40.4513C49.8239 37.7838 49.7968 34.7108 48.4906 32.054Z" fill="url(#paint0_linear_2331_42949)"/>
<path d="M32.7782 48.7541C33.4341 47.7832 34.5939 45.6599 34.5939 45.6599L6.98438 45.7292L22.5452 52.4886C23.4396 52.9101 24.4477 53.0861 25.4395 53.0434C28.4043 52.7554 31.0926 51.1975 32.7782 48.7595V48.7541Z" fill="url(#paint1_linear_2331_42949)"/>
<path d="M10.233 43.6714C11.4146 43.7461 13.8644 43.6714 13.8644 43.6714L0 20.1655L1.83197 36.8106C1.91327 37.7869 2.25473 38.7312 2.79131 39.5581C4.52571 41.9375 7.24114 43.4526 10.233 43.6714Z" fill="url(#paint2_linear_2331_42949)"/>
<path d="M3.41978 21.9202C3.94553 22.9605 5.23549 25.0198 5.23549 25.0198L18.9861 1.44458L5.25717 11.3303C4.43875 11.8851 3.78292 12.6533 3.32222 13.5229C2.09188 16.1904 2.11898 19.2634 3.4252 21.9202H3.41978Z" fill="url(#paint3_linear_2331_42949)"/>
<path d="M19.1673 5.24591C18.5114 6.21687 17.3516 8.34019 17.3516 8.34019L44.9611 8.27083L29.4057 1.51144C28.5114 1.08997 27.5033 0.91392 26.5114 0.9566C23.5466 1.24469 20.8583 2.8025 19.1727 5.24057L19.1673 5.24591Z" fill="url(#paint4_linear_2331_42949)"/>
<path d="M41.7017 10.313C40.5202 10.2383 38.0703 10.313 38.0703 10.313L51.9347 33.8188L50.1028 17.1737C50.0215 16.1974 49.68 15.2532 49.1434 14.4262C47.409 12.0468 44.6936 10.5317 41.7017 10.313Z" fill="url(#paint5_linear_2331_42949)"/>
<path d="M68.5703 44.2369V9.97345H91.4355V15.9461H75.7447V24.1105H90.2591V30.0831H75.7447V38.2642H91.5018V44.2369H68.5703Z" fill="#171717"/>
<path d="M125.522 9.97345V44.2369H119.325L104.562 22.6717H104.314V44.2369H97.1394V9.97345H103.436L118.083 31.5219H118.381V9.97345H125.522Z" fill="#171717"/>
<path d="M149.858 19.8275C149.725 18.478 149.156 17.4295 148.151 16.6823C147.146 15.935 145.782 15.5613 144.059 15.5613C142.888 15.5613 141.899 15.7286 141.093 16.0632C140.286 16.3867 139.668 16.8384 139.237 17.4184C138.817 17.9984 138.607 18.6564 138.607 19.3926C138.585 20.006 138.712 20.5414 138.988 20.9987C139.276 21.4559 139.668 21.8519 140.165 22.1865C140.662 22.5099 141.236 22.7944 141.888 23.0397C142.54 23.274 143.236 23.4747 143.976 23.642L147.024 24.3782C148.505 24.7128 149.863 25.1589 151.1 25.7166C152.338 26.2742 153.409 26.9602 154.315 27.7744C155.221 28.5886 155.922 29.5478 156.419 30.652C156.927 31.7562 157.187 33.0221 157.198 34.4497C157.187 36.5466 156.657 38.3646 155.607 39.9038C154.569 41.4318 153.067 42.6196 151.1 43.4673C149.145 44.3038 146.787 44.7221 144.025 44.7221C141.286 44.7221 138.9 44.2982 136.868 43.4506C134.846 42.6029 133.267 41.3482 132.129 39.6863C131.002 38.0133 130.411 35.9443 130.356 33.4794H137.298C137.376 34.6282 137.702 35.5874 138.276 36.357C138.861 37.1154 139.64 37.6898 140.612 38.0802C141.595 38.4594 142.705 38.649 143.943 38.649C145.158 38.649 146.213 38.4706 147.107 38.1136C148.013 37.7567 148.714 37.2604 149.212 36.6247C149.709 35.9889 149.957 35.2584 149.957 34.433C149.957 33.6634 149.731 33.0165 149.278 32.4923C148.836 31.9681 148.184 31.5219 147.323 31.1539C146.472 30.7858 145.428 30.4512 144.191 30.1501L140.496 29.2132C137.635 28.5105 135.376 27.4119 133.72 25.9173C132.063 24.4228 131.24 22.4096 131.251 19.8777C131.24 17.8032 131.786 15.9907 132.891 14.4404C134.007 12.8901 135.537 11.6799 137.481 10.81C139.425 9.93999 141.634 9.505 144.108 9.505C146.627 9.505 148.825 9.93999 150.703 10.81C152.592 11.6799 154.061 12.8901 155.11 14.4404C156.159 15.9907 156.701 17.7865 156.734 19.8275H149.858Z" fill="#171717"/>
<path d="M164.961 44.2369V9.97345H177.056C179.696 9.97345 181.883 10.4586 183.617 11.429C185.352 12.3993 186.649 13.7266 187.511 15.4108C188.373 17.0838 188.803 18.9687 188.803 21.0656C188.803 23.1736 188.367 25.0697 187.494 26.7538C186.633 28.4269 185.329 29.7541 183.584 30.7356C181.85 31.706 179.668 32.1912 177.039 32.1912H170.08V27.8078H176.575C178.243 27.8078 179.597 27.5179 180.635 26.9379C181.673 26.3467 182.435 25.5437 182.921 24.5287C183.407 23.5138 183.65 22.3594 183.65 21.0656C183.65 19.7718 183.407 18.623 182.921 17.6192C182.435 16.6153 181.668 15.829 180.618 15.2602C179.58 14.6914 178.21 14.407 176.509 14.407H170.08V44.2369H164.961Z" fill="#10B981"/>
<path d="M194.408 44.2369V18.5393H199.196V22.6215H199.461C199.925 21.2385 200.743 20.151 201.914 19.3591C203.096 18.556 204.432 18.1545 205.923 18.1545C206.233 18.1545 206.597 18.1657 207.017 18.188C207.448 18.2103 207.785 18.2382 208.028 18.2716V23.0565C207.829 23.0007 207.475 22.9394 206.967 22.8724C206.459 22.7944 205.951 22.7553 205.443 22.7553C204.272 22.7553 203.228 23.0063 202.311 23.5082C201.405 23.9989 200.688 24.6849 200.157 25.566C199.627 26.436 199.362 27.4286 199.362 28.544V44.2369H194.408Z" fill="#10B981"/>
<path d="M222.124 44.7555C219.738 44.7555 217.656 44.2034 215.877 43.0992C214.099 41.9951 212.718 40.4503 211.735 38.465C210.752 36.4797 210.26 34.1597 210.26 31.5052C210.26 28.8395 210.752 26.5085 211.735 24.512C212.718 22.5155 214.099 20.9652 215.877 19.861C217.656 18.7568 219.738 18.2047 222.124 18.2047C224.51 18.2047 226.592 18.7568 228.37 19.861C230.149 20.9652 231.529 22.5155 232.512 24.512C233.495 26.5085 233.987 28.8395 233.987 31.5052C233.987 34.1597 233.495 36.4797 232.512 38.465C231.529 40.4503 230.149 41.9951 228.37 43.0992C226.592 44.2034 224.51 44.7555 222.124 44.7555ZM222.14 40.5563C223.687 40.5563 224.968 40.1436 225.984 39.3182C227 38.4929 227.752 37.3942 228.238 36.0224C228.735 34.6505 228.983 33.1392 228.983 31.4885C228.983 29.8489 228.735 28.3432 228.238 26.9713C227.752 25.5883 227 24.4785 225.984 23.642C224.968 22.8055 223.687 22.3873 222.14 22.3873C220.583 22.3873 219.29 22.8055 218.263 23.642C217.247 24.4785 216.49 25.5883 215.993 26.9713C215.507 28.3432 215.264 29.8489 215.264 31.4885C215.264 33.1392 215.507 34.6505 215.993 36.0224C216.49 37.3942 217.247 38.4929 218.263 39.3182C219.29 40.1436 220.583 40.5563 222.14 40.5563Z" fill="#10B981"/>
<defs>
<linearGradient id="paint0_linear_2331_42949" x1="49.4939" y1="29.796" x2="32.9229" y2="51.6776" gradientUnits="userSpaceOnUse">
<stop stop-color="#34D399"/>
<stop offset="1" stop-color="#047857"/>
</linearGradient>
<linearGradient id="paint1_linear_2331_42949" x1="35.3455" y1="46.0705" x2="7.90985" y2="45.6056" gradientUnits="userSpaceOnUse">
<stop stop-color="#34D399"/>
<stop offset="1" stop-color="#047857"/>
</linearGradient>
<linearGradient id="paint2_linear_2331_42949" x1="0.46501" y1="20.4926" x2="13.9568" y2="43.7468" gradientUnits="userSpaceOnUse">
<stop stop-color="#34D399"/>
<stop offset="1" stop-color="#047857"/>
</linearGradient>
<linearGradient id="paint3_linear_2331_42949" x1="18.601" y1="0.946714" x2="4.64396" y2="25.1311" gradientUnits="userSpaceOnUse">
<stop stop-color="#34D399"/>
<stop offset="1" stop-color="#047857"/>
</linearGradient>
<linearGradient id="paint4_linear_2331_42949" x1="16.2844" y1="8.39293" x2="44.6501" y2="7.92807" gradientUnits="userSpaceOnUse">
<stop stop-color="#34D399"/>
<stop offset="1" stop-color="#047857"/>
</linearGradient>
<linearGradient id="paint5_linear_2331_42949" x1="39.0666" y1="10.7231" x2="52.0934" y2="34.908" gradientUnits="userSpaceOnUse">
<stop stop-color="#34D399"/>
<stop offset="1" stop-color="#047857"/>
</linearGradient>
</defs>
</svg>
