<svg width="21" height="20" viewBox="0 0 21 20" fill="none" xmlns="http://www.w3.org/2000/svg">
<path d="M10.3646 1.89134C10.2482 1.69593 9.9653 1.69593 9.84898 1.89134L5.05135 9.95137C4.96681 10.0934 5.01306 10.277 5.15478 10.3621L9.95242 13.2406C10.0474 13.2976 10.1661 13.2976 10.2611 13.2406L15.0588 10.3621C15.2005 10.277 15.2467 10.0934 15.1622 9.95137L10.3646 1.89134ZM6.13528 11.992C5.85628 11.8246 5.5477 12.1589 5.73681 12.4236L9.86265 18.1998C9.9823 18.3673 10.2312 18.3673 10.3509 18.1998L14.4767 12.4236C14.6658 12.1589 14.3573 11.8246 14.0783 11.992L10.2611 14.2823C10.1661 14.3393 10.0474 14.3393 9.95242 14.2823L6.13528 11.992Z" fill="#171717"/>
</svg>
