<svg width="20" height="20" viewBox="0 0 20 20" fill="none" xmlns="http://www.w3.org/2000/svg">
<g clip-path="url(#clip0_419_1197)">
<path d="M4.15656 9.52217C4.15654 9.41048 4.17858 9.29988 4.22142 9.19674C4.26425 9.09359 4.32704 8.99993 4.40616 8.92113C4.48529 8.84233 4.5792 8.77994 4.6825 8.73755C4.7858 8.69517 4.89645 8.67362 5.0081 8.67414L6.41986 8.67877C6.64496 8.67877 6.86084 8.76822 7.02001 8.92745C7.17918 9.08668 7.2686 9.30264 7.2686 9.52782V14.8682C7.42764 14.821 7.6316 14.7708 7.85504 14.7183C8.01018 14.6818 8.14844 14.5939 8.24741 14.469C8.34637 14.344 8.40025 14.1892 8.40029 14.0298V7.40556C8.40027 7.18035 8.48968 6.96435 8.64885 6.80509C8.80801 6.64582 9.0239 6.55633 9.24903 6.5563H10.6637C10.8888 6.55635 11.1047 6.64585 11.2638 6.80511C11.423 6.96437 11.5124 7.18035 11.5124 7.40556V13.5537C11.5124 13.5537 11.8664 13.4103 12.2115 13.2646C12.3396 13.2104 12.449 13.1196 12.5259 13.0037C12.6028 12.8877 12.6439 12.7516 12.644 12.6124V5.28254C12.644 5.17105 12.6659 5.06065 12.7086 4.95764C12.7512 4.85463 12.8137 4.76104 12.8925 4.68219C12.9713 4.60335 13.0649 4.54081 13.1679 4.49813C13.2708 4.45546 13.3812 4.43349 13.4926 4.43348H14.9072C15.1323 4.43348 15.3482 4.52293 15.5074 4.68216C15.6666 4.84139 15.756 5.05735 15.7561 5.28254V11.3183C16.9824 10.4292 18.2254 9.35974 19.2117 8.07386C19.3548 7.88721 19.4495 7.66802 19.4873 7.43586C19.5252 7.20369 19.505 6.96577 19.4285 6.74331C18.7612 4.79765 17.5093 3.10569 15.8442 1.89878C14.1791 0.691866 12.182 0.028914 10.1259 0.000570901C4.58158 -0.0739353 -0.000496661 4.45357 4.79739e-05 10.0006C-0.00539586 11.7559 0.452555 13.4815 1.32759 15.0029C1.44827 15.211 1.6258 15.3803 1.83934 15.491C2.05287 15.6016 2.29354 15.649 2.53308 15.6276C2.80069 15.604 3.13388 15.5707 3.52996 15.5242C3.70236 15.5046 3.86152 15.4222 3.97713 15.2928C4.09274 15.1633 4.15673 14.9959 4.1569 14.8223V9.52217" fill="#634C46"/>
<path d="M4.1258 18.087C5.61687 19.1721 7.37894 19.8234 9.21708 19.9689C11.0552 20.1144 12.8977 19.7484 14.5408 18.9113C16.1839 18.0743 17.5635 16.7989 18.527 15.2262C19.4905 13.6534 20.0003 11.8448 20 10.0002C20 9.76994 19.9893 9.54227 19.9739 9.31583C16.322 14.7642 9.57916 17.3116 4.12573 18.0872" fill="#634C46"/>
</g>
<defs>
<clipPath id="clip0_419_1197">
<rect width="20" height="20" fill="white"/>
</clipPath>
</defs>
</svg>
