<svg width="19" height="18" viewBox="0 0 19 18" fill="none" xmlns="http://www.w3.org/2000/svg">
<g id="Group">
<path id="Vector" d="M12.2214 8.11114C12.6928 8.11114 13.145 8.29844 13.4784 8.63184C13.8118 8.96523 13.9991 9.41742 13.9991 9.88892M16.6658 12.5556V6.33336L13.9991 3.66669M2.44358 16.1111V3.66669C2.44358 3.17958 2.63913 2.73869 2.95647 2.4178M5.99913 1.88892H9.55469C10.0262 1.88892 10.4784 2.07622 10.8118 2.40961C11.1452 2.74301 11.3325 3.1952 11.3325 3.66669V7.22225M11.3325 10.7778V16.1111M1.55469 16.1111H12.2214" stroke="#171717" stroke-width="1.5" stroke-linecap="round" stroke-linejoin="round"/>
<path id="Vector_2" d="M14.888 4.55556V5.44444C14.888 5.68019 14.9817 5.90628 15.1484 6.07298C15.3151 6.23968 15.5412 6.33333 15.7769 6.33333H16.6658M2.44358 8.11111H8.6658M1.55469 1L17.5547 17" stroke="#171717" stroke-width="1.5" stroke-linecap="round" stroke-linejoin="round"/>
</g>
</svg>
