<svg width="16" height="16" viewBox="0 0 16 16" fill="none" xmlns="http://www.w3.org/2000/svg">
<g clip-path="url(#clip0_512_334581)">
<mask id="mask0_512_334581" style="mask-type:luminance" maskUnits="userSpaceOnUse" x="0" y="0" width="16" height="16">
<path d="M16 0H0V16H16V0Z" fill="white"/>
</mask>
<g mask="url(#mask0_512_334581)">
<path d="M12.3101 9.22415C12.1366 9.22415 11.9743 9.29089 11.8532 9.41196L9.41169 11.8535C9.15979 12.1053 9.15979 12.5153 9.41161 12.7673L10.6575 14.0133C10.7784 14.1343 10.9407 14.201 11.1142 14.201C11.2876 14.201 11.4499 14.1343 11.5709 14.0133L14.0129 11.5712C14.1339 11.45 14.2006 11.2878 14.2006 11.1142C14.2006 10.9407 14.1339 10.7786 14.0129 10.6575L12.767 9.41189C12.6459 9.29089 12.4836 9.22415 12.3101 9.22415ZM11.1142 15.3333C10.6382 15.3333 10.1916 15.1488 9.85675 14.8138L8.61089 13.5678C7.91774 12.8744 7.91774 11.7462 8.61118 11.0529L11.0527 8.61124C11.3875 8.2764 11.8342 8.09189 12.3101 8.09189C12.786 8.09189 13.2326 8.27632 13.5675 8.61116L14.8134 9.85687C15.1484 10.1917 15.3328 10.6383 15.3328 11.1142C15.3328 11.5903 15.1485 12.0368 14.8136 12.3717L12.3715 14.8138C12.0367 15.1488 11.5901 15.3333 11.1142 15.3333Z" fill="#634C46"/>
<path d="M3.68926 9.22415C3.51568 9.22415 3.35346 9.29089 3.23231 9.41189L1.98667 10.6575C1.8656 10.7786 1.79894 10.9407 1.79894 11.1142C1.79887 11.2878 1.8656 11.45 1.98667 11.5712L4.4286 14.0133C4.54975 14.1343 4.71196 14.201 4.88539 14.201C5.0589 14.201 5.22119 14.1343 5.34226 14.0132L6.58849 12.7672C6.70949 12.6461 6.77622 12.4839 6.77622 12.3104C6.77622 12.1369 6.70949 11.9746 6.58834 11.8536L4.14627 9.41189C4.02512 9.29089 3.86284 9.22415 3.68926 9.22415ZM4.88539 15.3333C4.40946 15.3333 3.96286 15.1488 3.62802 14.8138L1.18602 12.3717C0.851181 12.0368 0.666748 11.5903 0.666748 11.1142C0.666748 10.6383 0.851255 10.1917 1.18624 9.85687L2.43173 8.61116C2.76672 8.27632 3.21332 8.09189 3.68926 8.09189C4.16519 8.09189 4.61172 8.27632 4.9467 8.61116L7.38885 11.0529C7.72383 11.3879 7.90834 11.8344 7.90842 12.3104C7.90842 12.7863 7.72391 13.2329 7.38907 13.5679L6.14277 14.8138C5.80793 15.1488 5.36133 15.3333 4.88539 15.3333Z" fill="#634C46"/>
<path d="M4.88539 1.799C4.71196 1.799 4.54975 1.86558 4.42868 1.98673L1.9866 4.42888C1.8656 4.54995 1.79887 4.71209 1.79887 4.88567C1.79887 5.05925 1.8656 5.22146 1.98667 5.34254L3.23239 6.58825C3.35346 6.70932 3.51568 6.77598 3.68926 6.77598C3.86276 6.77598 4.02498 6.70925 4.14605 6.58825L6.5879 4.14603C6.8398 3.8942 6.83973 3.48427 6.5879 3.23237L5.34226 1.98673C5.22119 1.86558 5.0589 1.799 4.88539 1.799ZM3.68926 7.90825C3.21332 7.90825 2.76672 7.72382 2.43188 7.38898L1.18609 6.14312C0.851182 5.8082 0.666748 5.36168 0.666748 4.88567C0.666638 4.40974 0.851182 3.96321 1.18602 3.62822L3.62802 1.18608C3.96286 0.851163 4.40946 0.666656 4.88539 0.666656C5.36133 0.666656 5.80793 0.851163 6.14284 1.18608L7.38848 2.43179C8.08178 3.12516 8.08185 4.25324 7.38863 4.94661L4.9467 7.3889C4.61172 7.72367 4.16519 7.90825 3.68926 7.90825Z" fill="#634C46"/>
<path d="M11.1143 1.799C10.9408 1.799 10.7785 1.86566 10.6575 1.98673L9.4118 3.23266C9.29065 3.35374 9.22399 3.51602 9.22399 3.68946C9.22399 3.86296 9.29065 4.02525 9.4118 4.14625L11.8536 6.58803C11.9747 6.7091 12.1369 6.77584 12.3104 6.77584C12.484 6.77584 12.6464 6.7091 12.7673 6.5881L14.0133 5.34246C14.1345 5.22124 14.2012 5.05918 14.2012 4.88567C14.2012 4.71209 14.1345 4.55002 14.0135 4.42895L11.5711 1.98673C11.45 1.86551 11.2877 1.799 11.1143 1.799ZM12.3104 7.90796C11.8346 7.90796 11.3879 7.72352 11.053 7.38868L8.61122 4.9469C8.27623 4.61199 8.0918 4.16546 8.0918 3.68946C8.09172 3.21352 8.27623 2.767 8.61107 2.43208L9.85686 1.18608C10.1917 0.851163 10.6383 0.666656 11.1143 0.666656C11.5901 0.666656 12.0368 0.85109 12.3717 1.186L14.814 3.62822C15.1489 3.96321 15.3334 4.40974 15.3334 4.88567C15.3332 5.36168 15.1487 5.8082 14.8139 6.14312L13.5679 7.38883C13.233 7.72352 12.7864 7.90796 12.3104 7.90796Z" fill="#634C46"/>
<path d="M4.97686 4.25559C4.5791 4.25559 4.25556 4.57921 4.25556 4.97697V11.0229C4.25556 11.4206 4.5791 11.7444 4.97686 11.7444H11.0228C11.4206 11.7444 11.7441 11.4206 11.7441 11.0229V4.97697C11.7441 4.57921 11.4206 4.25559 11.0228 4.25559H4.97686ZM11.0228 12.8765H4.97686C3.95474 12.8765 3.12329 12.045 3.12329 11.0229V4.97697C3.12329 3.95492 3.95474 3.12332 4.97686 3.12332H11.0228C12.0449 3.12332 12.8765 3.95492 12.8765 4.97697V11.0229C12.8765 12.045 12.0449 12.8765 11.0228 12.8765Z" fill="#634C46"/>
</g>
</g>
<defs>
<clipPath id="clip0_512_334581">
<rect width="16" height="16" fill="white"/>
</clipPath>
</defs>
</svg>
