<svg width="19" height="19" viewBox="0 0 19 19" fill="none" xmlns="http://www.w3.org/2000/svg">
<path d="M14.9625 16.0708L10.5292 11.6375C10.1333 11.9542 9.67813 12.2049 9.16354 12.3896C8.64896 12.5743 8.10139 12.6667 7.52083 12.6667C6.08264 12.6667 4.86558 12.1684 3.86967 11.172C2.87375 10.1756 2.37553 8.9585 2.375 7.52083C2.375 6.08264 2.87322 4.86558 3.86967 3.86967C4.86611 2.87375 6.08317 2.37553 7.52083 2.375C8.95903 2.375 10.1761 2.87322 11.172 3.86967C12.1679 4.86611 12.6661 6.08317 12.6667 7.52083C12.6667 8.10139 12.5743 8.64896 12.3896 9.16354C12.2049 9.67812 11.9542 10.1333 11.6375 10.5292L16.0906 14.9823C16.2358 15.1274 16.3083 15.3056 16.3083 15.5167C16.3083 15.7278 16.2292 15.9125 16.0708 16.0708C15.9257 16.216 15.741 16.2885 15.5167 16.2885C15.2924 16.2885 15.1076 16.216 14.9625 16.0708ZM7.52083 11.0833C8.51042 11.0833 9.3517 10.7368 10.0447 10.0439C10.7376 9.3509 11.0839 8.50989 11.0833 7.52083C11.0833 6.53125 10.7368 5.68997 10.0439 4.997C9.3509 4.30403 8.50989 3.95781 7.52083 3.95833C6.53125 3.95833 5.68997 4.30482 4.997 4.99779C4.30403 5.69076 3.95781 6.53178 3.95833 7.52083C3.95833 8.51042 4.30482 9.35169 4.99779 10.0447C5.69076 10.7376 6.53178 11.0839 7.52083 11.0833Z" fill="#92837F"/>
</svg>
