<svg width="20" height="20" viewBox="0 0 20 20" fill="none" xmlns="http://www.w3.org/2000/svg">
<path d="M10 10C10.55 10 11.021 9.804 11.413 9.412C11.805 9.02 12.0007 8.54933 12 8C12 7.45 11.804 6.979 11.412 6.587C11.02 6.195 10.5493 5.99933 10 6C9.45 6 8.979 6.196 8.587 6.588C8.195 6.98 7.99933 7.45067 8 8C8 8.55 8.196 9.021 8.588 9.413C8.98 9.805 9.45067 10.0007 10 10ZM10 19.625C9.86667 19.625 9.73333 19.6 9.6 19.55C9.46667 19.5 9.35 19.4333 9.25 19.35C6.81667 17.2 5 15.204 3.8 13.362C2.6 11.52 2 9.79933 2 8.2C2 5.7 2.80433 3.70833 4.413 2.225C6.02167 0.741667 7.884 0 10 0C12.1167 0 13.9793 0.741667 15.588 2.225C17.1967 3.70833 18.0007 5.7 18 8.2C18 9.8 17.4 11.521 16.2 13.363C15 15.205 13.1833 17.2007 10.75 19.35C10.65 19.4333 10.5333 19.5 10.4 19.55C10.2667 19.6 10.1333 19.625 10 19.625Z" fill="#634C46"/>
</svg>
