<svg width="32" height="32" viewBox="0 0 32 32" fill="none" xmlns="http://www.w3.org/2000/svg">
<g clip-path="url(#clip0_1774_3616)">
<path d="M9.99607 18.2659L9.16818 21.8389C9.13962 21.9695 9.1406 22.1048 9.17104 22.235C9.20149 22.3652 9.26063 22.4869 9.34415 22.5913C9.42767 22.6957 9.53346 22.7802 9.65379 22.8384C9.77412 22.8967 9.90594 22.9274 10.0396 22.9282C10.1019 22.9345 10.1647 22.9345 10.227 22.9282L13.8218 22.1003L20.7237 15.2245L16.8719 11.3813L9.99607 18.2659Z" fill="#A3A3A3"/>
<path d="M22.8934 11.7821L20.3226 9.2113C20.1536 9.04313 19.9249 8.94873 19.6865 8.94873C19.448 8.94873 19.2193 9.04313 19.0503 9.2113L17.6211 10.6405L21.4686 14.488L22.8978 13.0588C22.9814 12.9747 23.0477 12.875 23.0927 12.7653C23.1378 12.6556 23.1608 12.5381 23.1603 12.4195C23.1599 12.301 23.1362 12.1836 23.0904 12.0742C23.0446 11.9649 22.9776 11.8656 22.8934 11.7821Z" fill="#A3A3A3"/>
</g>
<defs>
<clipPath id="clip0_1774_3616">
<rect width="32" height="32" fill="white"/>
</clipPath>
</defs>
</svg>
