<svg width="24" height="24" viewBox="0 0 24 24" fill="none" xmlns="http://www.w3.org/2000/svg">
<g clip-path="url(#clip0_1026_4495)">
<path d="M10.4442 14L8.05534 11.6111C7.85163 11.4074 7.59238 11.3056 7.27756 11.3056C6.96275 11.3056 6.70349 11.4074 6.49978 11.6111C6.29608 11.8148 6.19423 12.0741 6.19423 12.3889C6.19423 12.7037 6.29608 12.963 6.49978 13.1667L9.66645 16.3334C9.88867 16.5556 10.1479 16.6667 10.4442 16.6667C10.7405 16.6667 10.9998 16.5556 11.222 16.3334L17.4998 10.0556C17.7035 9.85188 17.8053 9.59262 17.8053 9.2778C17.8053 8.96299 17.7035 8.70373 17.4998 8.50003C17.2961 8.29632 17.0368 8.19447 16.722 8.19447C16.4072 8.19447 16.1479 8.29632 15.9442 8.50003L10.4442 14ZM11.9998 23.1111C10.4627 23.1111 9.0183 22.8193 7.66645 22.2356C6.3146 21.6519 5.13867 20.8604 4.13867 19.8611C3.13867 18.8611 2.34719 17.6852 1.76423 16.3334C1.18126 14.9815 0.889413 13.5371 0.888672 12C0.888672 10.463 1.18052 9.01855 1.76423 7.66669C2.34793 6.31484 3.13941 5.13892 4.13867 4.13892C5.13867 3.13892 6.3146 2.34743 7.66645 1.76447C9.0183 1.18151 10.4627 0.889657 11.9998 0.888916C13.5368 0.888916 14.9813 1.18077 16.3331 1.76447C17.685 2.34818 18.8609 3.13966 19.8609 4.13892C20.8609 5.13892 21.6527 6.31484 22.2364 7.66669C22.8202 9.01855 23.1116 10.463 23.1109 12C23.1109 13.5371 22.819 14.9815 22.2353 16.3334C21.6516 17.6852 20.8602 18.8611 19.8609 19.8611C18.8609 20.8611 17.685 21.653 16.3331 22.2367C14.9813 22.8204 13.5368 23.1119 11.9998 23.1111Z" fill="#FF8B36"/>
</g>
<defs>
<clipPath id="clip0_1026_4495">
<rect width="24" height="24" fill="white"/>
</clipPath>
</defs>
</svg>
