<svg width="16" height="16" viewBox="0 0 16 16" fill="none" xmlns="http://www.w3.org/2000/svg">
<g clip-path="url(#clip0_533_1528)">
<path d="M2.76021 6.4824C2.91673 6.81888 3.30461 7.48498 3.30461 7.48498L7.76181 0.0480652L3.40668 3.11073C3.14809 3.2824 2.93714 3.52274 2.78743 3.79742C2.38595 4.64206 2.37914 5.62403 2.76021 6.4824Z" fill="url(#paint0_linear_533_1528)"/>
<path d="M0.991009 8.92704C1.09308 10.3691 1.80079 11.6944 2.93721 12.5665L7.74827 15.9519C7.74827 15.9519 4.7405 11.5708 2.19547 7.21717C1.93689 6.75708 1.76677 6.2558 1.68511 5.73391C1.65108 5.50043 1.65108 5.26009 1.68511 5.01974C1.61706 5.14335 1.48777 5.39743 1.48777 5.39743C1.22918 5.92618 1.05225 6.49614 0.970594 7.07983C0.929765 7.69099 0.929765 8.31588 0.991009 8.92704Z" fill="#A0A8D4"/>
<path d="M13.267 9.51759C13.1105 9.18111 12.7226 8.51501 12.7226 8.51501L8.26538 15.9519L12.6137 12.8893C12.8723 12.7176 13.0832 12.4772 13.233 12.2026C13.6412 11.3511 13.648 10.3691 13.267 9.51759Z" fill="url(#paint1_linear_533_1528)"/>
<path d="M15.0363 7.06609C14.9342 5.62403 14.2265 4.29871 13.0901 3.42661L8.27905 0.0411987C8.27905 0.0411987 11.2868 4.42231 13.8318 8.77596C14.0904 9.23605 14.2606 9.73734 14.3422 10.2592C14.3762 10.4927 14.3762 10.733 14.3422 10.9734C14.4103 10.8498 14.5396 10.5957 14.5396 10.5957C14.7981 10.0669 14.9751 9.49699 15.0567 8.9133C15.0976 8.30214 15.0976 7.68412 15.0363 7.06609Z" fill="#A0A8D4"/>
<path d="M2.7875 3.79742C2.93721 3.52274 3.14816 3.2824 3.40675 3.11073L7.75507 0.0480652L3.29787 7.48497C3.29787 7.48497 2.90999 6.81888 2.75348 6.4824C2.3724 5.62403 2.38601 4.64206 2.7875 3.79742ZM0.991009 8.92703C1.09308 10.3691 1.80079 11.6944 2.93721 12.5665L7.74827 15.9519C7.74827 15.9519 4.7405 11.5708 2.19547 7.21716C1.93689 6.75708 1.76677 6.25579 1.68511 5.7339C1.65108 5.50043 1.65108 5.26008 1.68511 5.01974C1.61706 5.14334 1.48777 5.39742 1.48777 5.39742C1.22918 5.92618 1.05225 6.49613 0.970594 7.07982C0.929765 7.69098 0.929765 8.31588 0.991009 8.92703ZM13.2602 9.51759C13.1037 9.18111 12.7158 8.51502 12.7158 8.51502L8.26544 15.9519L12.6138 12.8893C12.8723 12.7176 13.0833 12.4772 13.233 12.2026C13.6345 11.3579 13.6481 10.376 13.2602 9.51759V9.51759ZM15.0295 7.07296C14.9274 5.6309 14.2197 4.30558 13.0833 3.43347L8.27905 0.0480652C8.27905 0.0480652 11.2868 4.42918 13.8318 8.78283C14.0904 9.24291 14.2605 9.7442 14.3422 10.2661C14.3762 10.4996 14.3762 10.7399 14.3422 10.9803C14.4103 10.8566 14.5395 10.6026 14.5395 10.6026C14.7981 10.0738 14.9751 9.50386 15.0567 8.92017C15.1044 8.30214 15.1044 7.68412 15.0431 7.06609L15.0295 7.07296Z" fill="#634C46"/>
</g>
<defs>
<linearGradient id="paint0_linear_533_1528" x1="7.95154" y1="0.225349" x2="2.17373" y2="6.4323" gradientUnits="userSpaceOnUse">
<stop offset="0.58" stop-color="#A0A8D4"/>
<stop offset="0.73" stop-color="#8791C7"/>
<stop offset="0.91" stop-color="#6470B4"/>
</linearGradient>
<linearGradient id="paint1_linear_533_1528" x1="8.07474" y1="15.7708" x2="13.8534" y2="9.56506" gradientUnits="userSpaceOnUse">
<stop offset="0.58" stop-color="#A0A8D4"/>
<stop offset="0.73" stop-color="#8791C7"/>
<stop offset="0.91" stop-color="#6470B4"/>
</linearGradient>
<clipPath id="clip0_533_1528">
<rect width="14.2222" height="16" fill="white" transform="translate(0.888916)"/>
</clipPath>
</defs>
</svg>
