<svg width="54" height="48" viewBox="0 0 54 48" fill="none" xmlns="http://www.w3.org/2000/svg">
<path d="M53.592 47.6141C53.0692 47.6141 52.6771 47.5509 52.4221 47.418C52.1673 47.2853 51.9973 47.0639 51.9124 46.7414C51.8666 46.6021 51.8338 46.4315 51.8143 46.2354L51.0889 23.4584C51.0889 18.1267 49.5528 13.0669 46.1804 8.93683C45.7163 8.37392 45.2326 7.82369 44.7097 7.29875C44.5659 7.15328 44.4222 7.0141 44.2783 6.87496C42.5856 5.23054 40.6837 3.86442 38.6247 2.78922C37.6902 2.30223 36.7294 1.87213 35.7293 1.51163C33.2718 0.613505 30.6444 0.101211 27.9517 0.0126619C27.8601 0.0126619 27.7685 0.0126621 27.6771 0.00633955C27.4941 0.00633955 27.3175 0 27.1411 0C26.9452 0 26.749 0.00633931 26.5594 0.0126619H26.5529C26.4615 0.0126619 26.3765 0.0126789 26.2785 0.0190014C23.5922 0.107551 20.9777 0.619845 18.5268 1.52429C17.5399 1.87847 16.5856 2.30855 15.6575 2.78922C13.6052 3.86442 11.6967 5.23054 9.99737 6.87496C9.87974 6.99514 9.74901 7.11532 9.63136 7.23548C9.10849 7.76676 8.6183 8.30436 8.16079 8.86726C4.91242 12.8012 3.0693 17.6017 2.90589 22.6868C2.89936 22.788 2.90589 22.8892 2.90589 22.9967L2.05621 46.2354C2.04314 46.4631 2.017 46.6528 1.98431 46.8046C1.90589 47.1019 1.78824 47.3106 1.59871 47.418C1.4157 47.5509 1.12811 47.6141 0.735958 47.6141C0.696742 47.6141 0.664062 47.6711 0.664062 47.8039C0.664062 47.9368 0.696742 48 0.735958 48L2.08235 47.9684C2.82092 47.924 3.41569 47.905 3.87974 47.905C4.42876 47.905 5.12157 47.924 5.94511 47.9684L7.32418 48C7.36994 48 7.38954 47.9368 7.38954 47.8039C7.38954 47.6711 7.36994 47.6141 7.32418 47.6141C6.79476 47.6141 6.40916 47.5509 6.14771 47.418C5.89935 47.2853 5.72941 47.0639 5.6379 46.7414C5.59216 46.6021 5.66406 46.4315 5.6379 46.2354V37.9167C5.46797 32.6229 6.25882 27.386 9.18693 22.9145C9.73594 22.0732 10.2784 21.3206 10.7686 20.7514C11.3569 20.0431 11.9908 19.3663 12.6444 18.7149C12.7882 18.5756 12.932 18.4302 13.0758 18.2847C16.3503 15.1224 20.1477 12.6368 24.2784 10.9228C24.9058 10.6635 25.5334 10.4231 26.1739 10.2018C26.4417 10.1006 26.7163 10.012 26.9909 9.91714C27.3111 10.0247 27.6314 10.1322 27.9581 10.246C28.6248 10.4801 29.2785 10.7394 29.9254 11.0177C33.9712 12.7317 37.6902 15.1793 40.9058 18.2847C41.1346 18.4998 41.3503 18.7211 41.5659 18.9425C41.579 18.9551 41.592 18.9615 41.5986 18.9742C42.2587 19.651 42.8863 20.3402 43.4809 21.055C43.4941 21.0677 43.5071 21.0803 43.5202 21.1055C43.8078 21.4472 44.1085 21.8519 44.4156 22.3009C47.6118 26.9116 48.5267 32.4205 48.3242 37.9673V46.2354C48.311 46.4631 48.2849 46.6528 48.2521 46.8046C48.1803 47.1019 48.0562 47.3106 47.8732 47.418C47.6902 47.5509 47.3961 47.6141 47.0103 47.6141C46.9646 47.6141 46.9385 47.6711 46.9385 47.8039C46.9385 47.9368 46.9646 48 47.0103 48L48.3503 47.9684C49.0888 47.924 49.6901 47.905 50.1476 47.905C50.7032 47.905 51.3894 47.924 52.2195 47.9684L53.592 48C53.6379 48 53.6641 47.9368 53.6641 47.8039C53.6641 47.6711 53.6379 47.6141 53.592 47.6141ZM42.4026 6.98885C41.0824 6.8497 39.762 6.78644 38.4222 6.78644C37.5202 6.78644 36.6312 6.81804 35.7424 6.87496C35.1869 6.53976 34.6248 6.22355 34.0431 5.91997H34.0365C33.9908 5.89466 33.9451 5.86937 33.9058 5.84406C32.8143 5.27485 31.7032 4.74988 30.5594 4.28184C30.1607 4.1174 29.762 3.96561 29.3633 3.81382C30.0431 3.64938 30.736 3.51024 31.4288 3.38375C32.7752 3.13709 34.1477 2.96633 35.5399 2.87778C38.0365 3.83281 40.3568 5.2179 42.4026 6.99514V6.98885ZM24.8012 1.45472C24.8405 1.45472 24.8732 1.45471 24.9189 1.44206C25.6509 1.37248 26.3894 1.34083 27.1411 1.34083C27.3175 1.34083 27.4941 1.34085 27.6771 1.34717C28.2654 1.35982 28.8536 1.39146 29.4287 1.44838C30.3764 1.53693 31.3111 1.6824 32.2196 1.88479C31.5595 1.98598 30.9058 2.09984 30.2523 2.23897H30.2457C29.5072 2.39076 28.7621 2.56783 28.0235 2.76389C27.7032 2.85244 27.3896 2.94731 27.0627 3.04219C26.7817 2.95364 26.5006 2.87775 26.2064 2.80184C26.2 2.7892 26.1935 2.78922 26.1869 2.78922C25.4745 2.59315 24.7555 2.41605 24.03 2.26426C24.0104 2.26426 23.9843 2.25792 23.9647 2.2516C23.3176 2.11877 22.6575 1.99861 21.9974 1.89742C22.9125 1.69503 23.8536 1.54327 24.8012 1.45472ZM18.7228 2.88407C20.0955 2.97894 21.4548 3.1497 22.7948 3.39637C22.8077 3.39637 22.8209 3.39638 22.8339 3.40271C23.4876 3.52287 24.1281 3.66203 24.7687 3.8075C24.37 3.95929 23.9713 4.11108 23.5726 4.27552C22.4811 4.72457 21.4352 5.22424 20.396 5.74285C20.396 5.74918 20.3896 5.74919 20.3896 5.74919H20.383L20.3764 5.76185C20.3569 5.7745 20.3373 5.78714 20.3176 5.79347C19.6575 6.14132 19.0105 6.50181 18.3764 6.8813C17.4419 6.81805 16.5072 6.78644 15.566 6.78644C14.3372 6.78644 13.1216 6.84334 11.9189 6.95718C13.9451 5.19891 16.2457 3.83277 18.7228 2.88407ZM4.31111 22.2503C4.33072 21.9151 4.35034 21.5862 4.383 21.2637C4.39609 21.2383 4.39609 21.2195 4.39609 21.2005C4.88628 16.4505 6.93856 12.0359 10.3046 8.50042C12.0301 8.24744 13.7882 8.13361 15.566 8.13361C15.8536 8.13361 16.1477 8.13358 16.4418 8.1399C14.7752 9.28469 13.2065 10.5749 11.7425 11.9917C9.18038 14.4772 7.03007 17.2602 5.32419 20.3024L5.25882 20.4224C4.92549 21.0234 4.61177 21.6305 4.31111 22.2503ZM23.9254 9.61358C23.6967 9.71477 23.4614 9.81598 23.2326 9.91085C19.3111 11.6059 15.7555 13.927 12.6444 16.8174C12.4549 16.9945 12.2719 17.1653 12.0954 17.3424C11.6379 17.7788 11.1935 18.2341 10.7686 18.6959C8.33725 21.2953 6.33071 24.1921 4.78825 27.3482V24.5526C5.04315 23.92 5.32419 23.3002 5.61831 22.693C5.6379 22.6614 5.65752 22.6298 5.67059 22.592C6.87973 20.1315 8.39608 17.7978 10.2065 15.6474C10.3046 15.5272 10.4026 15.4133 10.5007 15.3059C11.2 14.4899 11.9386 13.6994 12.7229 12.9467C13.5137 12.1751 14.3438 11.4478 15.2 10.7647C15.2784 10.6951 15.3634 10.6319 15.4418 10.5686C16.4941 9.73375 17.5856 8.96844 18.7228 8.26008C19.2522 8.30436 19.7752 8.36128 20.298 8.42452C20.3242 8.42452 20.3437 8.43086 20.3699 8.43086C20.8993 8.50676 21.4287 8.58267 21.9581 8.67754C22.9059 8.84197 23.8536 9.04438 24.7817 9.27838C24.4941 9.3859 24.213 9.49974 23.9254 9.61358ZM26.9909 8.51308C25.8405 8.15257 24.6705 7.84898 23.4942 7.60232C23.1803 7.53275 22.8666 7.47583 22.5595 7.41891C22.2392 7.35567 21.9189 7.30508 21.5921 7.25448H21.5855C21.285 7.20388 20.9843 7.15959 20.6901 7.12164C20.8993 7.0078 21.1084 6.9003 21.3177 6.78644C21.8012 6.53978 22.2915 6.30578 22.7882 6.07808C22.8013 6.07808 22.8209 6.06542 22.8339 6.0591C24.2066 5.43295 25.6248 4.89535 27.0693 4.44629C28.5986 4.92065 30.0954 5.49617 31.5398 6.1666C31.9973 6.37531 32.4353 6.5967 32.8863 6.82439C33.0627 6.91927 33.2391 7.00781 33.4157 7.10901C33.1477 7.14064 32.8863 7.17857 32.6183 7.21653C32.2915 7.26712 31.9646 7.32404 31.6379 7.38098H31.6314C31.3306 7.4379 31.0365 7.48846 30.7424 7.55172C29.4679 7.81103 28.2195 8.1336 26.9909 8.51308ZM49.2066 27.3608C47.7227 24.3375 45.8143 21.5356 43.5202 19.0122L43.4809 18.9742C42.9713 18.4176 42.4417 17.8736 41.8927 17.3424C41.7947 17.2476 41.7032 17.1589 41.5986 17.0641C41.592 17.0515 41.579 17.0389 41.5659 17.0261C38.4549 14.0979 34.8993 11.7387 30.9712 10.0057C30.664 9.87288 30.3634 9.74008 30.0561 9.61358C29.7686 9.49974 29.494 9.3859 29.2 9.27838C30.2589 9.01275 31.3241 8.79136 32.4092 8.61426C32.8863 8.53203 33.3698 8.46883 33.847 8.40557C34.3568 8.34233 34.8732 8.29173 35.396 8.24745C35.7229 8.22216 39.6967 11.3972 39.6967 11.3972C40.285 11.8905 40.8535 12.4091 41.409 12.9467C41.9646 13.4843 42.5006 14.0345 43.017 14.6101L43.5202 15.1477V15.1731C45.4614 17.3994 47.0824 19.8343 48.3764 22.4085C48.6706 23.0093 48.9515 23.6101 49.2066 24.2173V27.3608ZM48.7556 20.2076C47.0562 17.2032 44.9255 14.452 42.396 11.9917C40.9189 10.5749 39.3503 9.28469 37.6836 8.1399C37.9255 8.13358 38.1803 8.13361 38.4222 8.13361C40.3177 8.13361 42.1869 8.27273 44.0301 8.5447C47.3895 12.1055 49.4221 16.5517 49.8992 21.3206C49.9385 21.7381 49.9712 22.1744 49.9908 22.5982C49.5987 21.7887 49.1934 20.9918 48.7556 20.2076Z" fill="#1C1A18"/>
</svg>
