<svg width="21" height="20" viewBox="0 0 21 20" fill="none" xmlns="http://www.w3.org/2000/svg">
<path d="M10.5 0.247559C4.69875 0.247559 0 4.72506 0 10.2476C0 14.6667 3.00825 18.4142 7.17937 19.7351C7.70437 19.8292 7.89687 19.5201 7.89687 19.2542C7.89687 19.0167 7.88813 18.3876 7.88375 17.5542C4.963 18.1576 4.347 16.2126 4.347 16.2126C3.86925 15.0584 3.17887 14.7501 3.17887 14.7501C2.22775 14.1301 3.25238 14.1426 3.25238 14.1426C4.30675 14.2126 4.86062 15.1726 4.86062 15.1726C5.79687 16.7017 7.3185 16.2601 7.91875 16.0042C8.01325 15.3576 8.28363 14.9167 8.58375 14.6667C6.25188 14.4167 3.801 13.5567 3.801 9.72506C3.801 8.63339 4.20788 7.74173 4.88162 7.04173C4.7635 6.78923 4.40913 5.77256 4.9735 4.39506C4.9735 4.39506 5.85288 4.12673 7.861 5.42006C8.701 5.19756 9.5935 5.08756 10.486 5.08256C11.3785 5.08756 12.271 5.19756 13.111 5.42006C15.106 4.12673 15.9854 4.39506 15.9854 4.39506C16.5497 5.77256 16.1954 6.78923 16.0904 7.04173C16.7597 7.74173 17.1666 8.63339 17.1666 9.72506C17.1666 13.5667 14.7123 14.4126 12.376 14.6584C12.7435 14.9584 13.0848 15.5717 13.0848 16.5084C13.0848 17.8467 13.0716 18.9217 13.0716 19.2467C13.0716 19.5092 13.2554 19.8217 13.7935 19.7217C17.9944 18.4101 21 14.6601 21 10.2476C21 4.72506 16.2986 0.247559 10.5 0.247559" fill="white"/>
</svg>
