<svg width="20" height="20" viewBox="0 0 20 20" fill="none" xmlns="http://www.w3.org/2000/svg">
<path d="M17.9525 6.24251C17.9647 6.40489 17.9647 6.56727 17.9647 6.73114C17.9647 11.7245 13.8371 17.4833 6.28966 17.4833V17.4803C4.06013 17.4833 1.8769 16.8951 0 15.7862C0.324193 15.8221 0.65001 15.84 0.97664 15.8408C2.82429 15.8423 4.61913 15.2713 6.07272 14.22C4.31688 14.1893 2.77717 13.135 2.23928 11.5958C2.85436 11.705 3.48812 11.6826 4.09181 11.5307C2.17753 11.1745 0.800325 9.62552 0.800325 7.82664C0.800325 7.81017 0.800325 7.79446 0.800325 7.77875C1.37071 8.07133 2.00934 8.2337 2.6626 8.25166C0.859638 7.14195 0.30388 4.93301 1.39265 3.20597C3.47593 5.56681 6.54966 7.00202 9.84928 7.15393C9.51859 5.84143 9.97034 4.46608 11.0364 3.54345C12.689 2.11272 15.2882 2.18606 16.8418 3.70732C17.7607 3.54045 18.6415 3.22991 19.4475 2.78992C19.1412 3.66467 18.5001 4.40772 17.6437 4.87989C18.457 4.79159 19.2517 4.59105 20 4.285C19.4491 5.04526 18.7552 5.70749 17.9525 6.24251Z" fill="white"/>
</svg>
