<svg width="20" height="20" viewBox="0 0 20 20" fill="none" xmlns="http://www.w3.org/2000/svg">
<path d="M17.2727 4.54572C17.2727 4.54572 15.1886 2.91481 12.7273 2.72754L12.5055 3.17118C14.7309 3.71572 15.7518 4.49618 16.8182 5.45481C14.9795 4.51618 13.1641 3.63663 10 3.63663C6.83591 3.63663 5.02045 4.51618 3.18182 5.45481C4.24818 4.49618 5.46273 3.62981 7.49455 3.17118L7.27273 2.72754C4.69045 2.97163 2.72727 4.54572 2.72727 4.54572C2.72727 4.54572 0.399545 7.92072 0 14.5457C2.34636 17.2516 5.90909 17.273 5.90909 17.273L6.65409 16.2798C5.38955 15.8403 3.96136 15.0553 2.72727 13.6366C4.19909 14.7503 6.42045 15.9094 10 15.9094C13.5795 15.9094 15.8009 14.7503 17.2727 13.6366C16.0386 15.0553 14.6105 15.8403 13.3459 16.2798L14.0909 17.273C14.0909 17.273 17.6536 17.2516 20 14.5457C19.6005 7.92072 17.2727 4.54572 17.2727 4.54572ZM7.04545 12.7275C6.16682 12.7275 5.45455 11.9134 5.45455 10.9094C5.45455 9.90527 6.16682 9.09118 7.04545 9.09118C7.92409 9.09118 8.63636 9.90527 8.63636 10.9094C8.63636 11.9134 7.92409 12.7275 7.04545 12.7275ZM12.9545 12.7275C12.0759 12.7275 11.3636 11.9134 11.3636 10.9094C11.3636 9.90527 12.0759 9.09118 12.9545 9.09118C13.8332 9.09118 14.5455 9.90527 14.5455 10.9094C14.5455 11.9134 13.8332 12.7275 12.9545 12.7275Z" fill="#634C46"/>
</svg>
