<svg width="20" height="20" viewBox="0 0 20 20" fill="none" xmlns="http://www.w3.org/2000/svg">
<path d="M10 0.248047C4.475 0.248047 0 4.72555 0 10.248C0 14.6672 2.865 18.4147 6.8375 19.7355C7.3375 19.8297 7.52083 19.5205 7.52083 19.2547C7.52083 19.0172 7.5125 18.388 7.50833 17.5547C4.72667 18.158 4.14 16.213 4.14 16.213C3.685 15.0589 3.0275 14.7505 3.0275 14.7505C2.12167 14.1305 3.0975 14.143 3.0975 14.143C4.10167 14.213 4.62917 15.173 4.62917 15.173C5.52083 16.7022 6.97 16.2605 7.54167 16.0047C7.63167 15.358 7.88917 14.9172 8.175 14.6672C5.95417 14.4172 3.62 13.5572 3.62 9.72555C3.62 8.63388 4.0075 7.74221 4.64917 7.04221C4.53667 6.78971 4.19917 5.77305 4.73667 4.39555C4.73667 4.39555 5.57417 4.12721 7.48667 5.42055C8.28667 5.19805 9.13667 5.08805 9.98667 5.08305C10.8367 5.08805 11.6867 5.19805 12.4867 5.42055C14.3867 4.12721 15.2242 4.39555 15.2242 4.39555C15.7617 5.77305 15.4242 6.78971 15.3242 7.04221C15.9617 7.74221 16.3492 8.63388 16.3492 9.72555C16.3492 13.5672 14.0117 14.413 11.7867 14.6589C12.1367 14.9589 12.4617 15.5722 12.4617 16.5089C12.4617 17.8472 12.4492 18.9222 12.4492 19.2472C12.4492 19.5097 12.6242 19.8222 13.1367 19.7222C17.1375 18.4105 20 14.6605 20 10.248C20 4.72555 15.5225 0.248047 10 0.248047Z" fill="#634C46"/>
</svg>
