<svg width="16" height="16" viewBox="0 0 16 16" fill="none" xmlns="http://www.w3.org/2000/svg">
<rect width="16" height="16" rx="8" fill="black"/>
<g clip-path="url(#clip0_1665_41346)">
<path d="M12.4676 10.3074L10.9518 11.891C10.9189 11.9254 10.879 11.9529 10.8347 11.9716C10.7904 11.9904 10.7426 12 10.6943 12H3.50897C3.47469 12 3.44115 11.9902 3.41248 11.9719C3.38381 11.9536 3.36126 11.9275 3.34759 11.8969C3.33393 11.8663 3.32974 11.8324 3.33556 11.7995C3.34137 11.7666 3.35693 11.736 3.38032 11.7116L4.8972 10.128C4.93006 10.0937 4.9698 10.0663 5.01395 10.0476C5.05812 10.0288 5.10575 10.0191 5.15393 10.019H12.3389C12.3731 10.019 12.4067 10.0288 12.4354 10.0471C12.464 10.0654 12.4866 10.0915 12.5003 10.1221C12.5139 10.1528 12.5181 10.1866 12.5123 10.2195C12.5065 10.2525 12.4909 10.283 12.4676 10.3074ZM10.9518 7.11847C10.9189 7.08407 10.879 7.05665 10.8347 7.0379C10.7904 7.01916 10.7426 7.0095 10.6943 7.00953H3.50897C3.47469 7.00953 3.44115 7.01928 3.41248 7.0376C3.38381 7.05592 3.36126 7.08199 3.34759 7.11262C3.33393 7.14325 3.32974 7.17711 3.33556 7.21003C3.34137 7.24294 3.35693 7.27348 3.38032 7.29791L4.8972 8.88153C4.93006 8.91584 4.9698 8.9432 5.01395 8.96195C5.05812 8.98068 5.10575 8.9904 5.15393 8.99047H12.3389C12.3731 8.99047 12.4067 8.98072 12.4354 8.9624C12.464 8.94408 12.4866 8.91801 12.5003 8.88738C12.5139 8.85675 12.5181 8.82289 12.5123 8.78997C12.5065 8.75706 12.4909 8.72652 12.4676 8.70209L10.9518 7.11847ZM3.50897 5.98095H10.6943C10.7426 5.98097 10.7904 5.97132 10.8347 5.95257C10.879 5.93383 10.9189 5.9064 10.9518 5.872L12.4676 4.28838C12.4909 4.26396 12.5065 4.23342 12.5123 4.2005C12.5181 4.16758 12.5139 4.13373 12.5003 4.1031C12.4866 4.07247 12.464 4.04639 12.4354 4.02807C12.4067 4.00976 12.3731 4 12.3389 4H5.15393C5.10575 4.00008 5.05812 4.00979 5.01395 4.02853C4.9698 4.04727 4.93006 4.07464 4.8972 4.10895L3.38071 5.69257C3.35734 5.71696 3.34179 5.74748 3.33596 5.78035C3.33014 5.81324 3.33429 5.84706 3.3479 5.87768C3.36152 5.9083 3.38402 5.93437 3.41263 5.95272C3.44124 5.97106 3.47472 5.98087 3.50897 5.98095Z" fill="url(#paint0_linear_1665_41346)"/>
</g>
<defs>
<linearGradient id="paint0_linear_1665_41346" x1="4.10806" y1="12.1907" x2="11.4233" y2="3.72579" gradientUnits="userSpaceOnUse">
<stop offset="0.08" stop-color="#9945FF"/>
<stop offset="0.3" stop-color="#8752F3"/>
<stop offset="0.5" stop-color="#5497D5"/>
<stop offset="0.6" stop-color="#43B4CA"/>
<stop offset="0.72" stop-color="#28E0B9"/>
<stop offset="0.97" stop-color="#19FB9B"/>
</linearGradient>
<clipPath id="clip0_1665_41346">
<rect width="9.18182" height="8" fill="white" transform="translate(3.33301 4)"/>
</clipPath>
</defs>
</svg>
