<svg width="16" height="16" viewBox="0 0 16 16" fill="none" xmlns="http://www.w3.org/2000/svg">
<g clip-path="url(#clip0_1665_41374)">
<path d="M8 16C12.4183 16 16 12.4183 16 8C16 3.58172 12.4183 0 8 0C3.58172 0 0 3.58172 0 8C0 12.4183 3.58172 16 8 16Z" fill="#FF0420"/>
<path d="M5.66806 10.1263C5.19171 10.1263 4.80144 10.0142 4.49721 9.79001C4.19699 9.56185 4.04688 9.23763 4.04688 8.81731C4.04688 8.72924 4.05689 8.62115 4.07689 8.49305C4.12895 8.20486 4.203 7.85859 4.29907 7.4543C4.57126 6.3535 5.27379 5.8031 6.40662 5.8031C6.71484 5.8031 6.99104 5.85513 7.23523 5.9592C7.47942 6.05926 7.67155 6.21139 7.81164 6.41555C7.95174 6.61568 8.02182 6.85587 8.02182 7.13606C8.02182 7.22012 8.0118 7.3262 7.99177 7.4543C7.93174 7.81056 7.85968 8.15683 7.77561 8.49305C7.63552 9.04147 7.39334 9.45177 7.04908 9.72396C6.70483 9.99216 6.24451 10.1263 5.66806 10.1263ZM5.75212 9.26163C5.97632 9.26163 6.16643 9.19558 6.32256 9.06348C6.48268 8.93139 6.59676 8.72924 6.6648 8.45705C6.75686 8.08076 6.82694 7.75251 6.87497 7.47232C6.89097 7.38825 6.89897 7.3022 6.89897 7.21411C6.89897 6.84985 6.70883 6.66771 6.32857 6.66771C6.10438 6.66771 5.91225 6.73376 5.75212 6.86585C5.59603 6.99798 5.48393 7.20012 5.4159 7.47232C5.34384 7.74051 5.27177 8.06876 5.19974 8.45705C5.18371 8.53708 5.17571 8.62115 5.17571 8.70921C5.17571 9.0775 5.36787 9.26163 5.75212 9.26163Z" fill="white"/>
<path d="M8.29736 10.0663C8.25332 10.0663 8.21928 10.0522 8.19528 10.0242C8.17524 9.99218 8.16926 9.95618 8.17726 9.91615L9.00587 6.01327C9.01387 5.96924 9.03588 5.93321 9.07191 5.90517C9.10795 5.87717 9.14596 5.86316 9.18599 5.86316H10.7832C11.2275 5.86316 11.5838 5.95522 11.8519 6.13935C12.1242 6.32351 12.2603 6.58969 12.2603 6.93794C12.2603 7.03801 12.2483 7.1421 12.2242 7.25017C12.1242 7.71052 11.922 8.05078 11.6178 8.27094C11.3176 8.4911 10.9053 8.60118 10.3809 8.60118H9.57028L9.29409 9.91615C9.28606 9.96018 9.26404 9.99618 9.22804 10.0242C9.19201 10.0522 9.15396 10.0663 9.11396 10.0663H8.29736ZM10.4229 7.77257C10.591 7.77257 10.7371 7.72652 10.8612 7.63446C10.9893 7.54239 11.0734 7.4103 11.1134 7.23817C11.1254 7.1701 11.1314 7.11007 11.1314 7.05804C11.1314 6.94194 11.0974 6.85388 11.0294 6.79385C10.9613 6.72978 10.8452 6.69778 10.6811 6.69778H9.96056L9.7324 7.77257H10.4229Z" fill="white"/>
</g>
<defs>
<clipPath id="clip0_1665_41374">
<rect width="16" height="16" fill="white"/>
</clipPath>
</defs>
</svg>
