<svg width="80" height="80" viewBox="0 0 80 80" fill="none" xmlns="http://www.w3.org/2000/svg">
<g id="mdi:clock-fast">
<path id="Vector" d="M50 13.3333C57.0725 13.3333 63.8552 16.1428 68.8562 21.1438C73.8572 26.1448 76.6667 32.9275 76.6667 40C76.6667 47.0724 73.8572 53.8552 68.8562 58.8561C63.8552 63.8571 57.0725 66.6666 50 66.6666C42.9276 66.6666 36.1448 63.8571 31.1439 58.8561C26.1429 53.8552 23.3334 47.0724 23.3334 40C23.3334 32.9275 26.1429 26.1448 31.1439 21.1438C36.1448 16.1428 42.9276 13.3333 50 13.3333ZM50 20C44.6957 20 39.6086 22.1071 35.8579 25.8578C32.1072 29.6086 30 34.6956 30 40C30 45.3043 32.1072 50.3914 35.8579 54.1421C39.6086 57.8928 44.6957 60 50 60C55.3044 60 60.3914 57.8928 64.1422 54.1421C67.8929 50.3914 70 45.3043 70 40C70 34.6956 67.8929 29.6086 64.1422 25.8578C60.3914 22.1071 55.3044 20 50 20ZM46.6667 26.6666H51.6667V39.2666L59.4334 47.0333L55.9 50.5666L46.6667 41.3333V26.6666ZM6.66671 60C5.78265 60 4.93481 59.6488 4.30968 59.0237C3.68456 58.3985 3.33337 57.5507 3.33337 56.6666C3.33337 55.7826 3.68456 54.9347 4.30968 54.3096C4.93481 53.6845 5.78265 53.3333 6.66671 53.3333H19.4334C20.4667 55.7 21.8 57.9333 23.3334 60H6.66671ZM10 43.3333C9.11598 43.3333 8.26814 42.9821 7.64302 42.357C7.0179 41.7319 6.66671 40.884 6.66671 40C6.66671 39.1159 7.0179 38.2681 7.64302 37.643C8.26814 37.0178 9.11598 36.6666 10 36.6666H16.8334L16.6667 40L16.8334 43.3333H10ZM13.3334 26.6666C12.4493 26.6666 11.6015 26.3155 10.9763 25.6903C10.3512 25.0652 10 24.2174 10 23.3333C10 22.4493 10.3512 21.6014 10.9763 20.9763C11.6015 20.3512 12.4493 20 13.3334 20H23.3334C21.8 22.0666 20.4667 24.3 19.4334 26.6666H13.3334Z" fill="url(#paint0_linear_524_12416)"/>
</g>
<defs>
<linearGradient id="paint0_linear_524_12416" x1="72.6334" y1="40" x2="7.36671" y2="40" gradientUnits="userSpaceOnUse">
<stop stop-color="#FFC398"/>
<stop offset="1" stop-color="#FF9C87"/>
</linearGradient>
</defs>
</svg>
