<svg width="80" height="80" viewBox="0 0 80 80" fill="none" xmlns="http://www.w3.org/2000/svg">
<g id="streamline:money-atm-card-3-deposit-money-payment-finance-atm-withdraw" clip-path="url(#clip0_524_12406)">
<g id="Vector">
<path d="M20 11.4286V22.8571M40 2.85715V22.8571M60 11.4286V22.8571M8.57146 37.1429H71.4286C74.5845 37.1429 77.1429 39.7012 77.1429 42.8571V71.4286C77.1429 74.5845 74.5845 77.1428 71.4286 77.1428H8.57146C5.41555 77.1428 2.85718 74.5845 2.85718 71.4286V42.8571C2.85718 39.7012 5.41555 37.1429 8.57146 37.1429ZM48.5715 57.1428C48.5715 61.8767 44.7339 65.7143 40 65.7143C35.2662 65.7143 31.4286 61.8767 31.4286 57.1428C31.4286 52.409 35.2662 48.5714 40 48.5714C44.7339 48.5714 48.5715 52.409 48.5715 57.1428Z" stroke="white" stroke-width="5" stroke-linecap="round" stroke-linejoin="round"/>
<path d="M20 11.4286V22.8571M40 2.85715V22.8571M60 11.4286V22.8571M8.57146 37.1429H71.4286C74.5845 37.1429 77.1429 39.7012 77.1429 42.8571V71.4286C77.1429 74.5845 74.5845 77.1428 71.4286 77.1428H8.57146C5.41555 77.1428 2.85718 74.5845 2.85718 71.4286V42.8571C2.85718 39.7012 5.41555 37.1429 8.57146 37.1429ZM48.5715 57.1428C48.5715 61.8767 44.7339 65.7143 40 65.7143C35.2662 65.7143 31.4286 61.8767 31.4286 57.1428C31.4286 52.409 35.2662 48.5714 40 48.5714C44.7339 48.5714 48.5715 52.409 48.5715 57.1428Z" stroke="url(#paint0_linear_524_12406)" stroke-opacity="0.5" stroke-width="5" stroke-linecap="round" stroke-linejoin="round"/>
</g>
</g>
<defs>
<linearGradient id="paint0_linear_524_12406" x1="73.0572" y1="40" x2="6.94289" y2="40" gradientUnits="userSpaceOnUse">
<stop stop-color="#FF8B36"/>
<stop offset="1" stop-color="#FF4429"/>
</linearGradient>
<clipPath id="clip0_524_12406">
<rect width="80" height="80" fill="white"/>
</clipPath>
</defs>
</svg>
