<svg width="34" height="30" viewBox="0 0 34 30" fill="none" xmlns="http://www.w3.org/2000/svg">
<path fill-rule="evenodd" clip-rule="evenodd" d="M7.64541 1.61498L9.37273 6.0331L11.2838 10.9211L9.32674 19.9573L7.54106 28.2023L4.14114 22.25L0 15L7.64541 1.61498ZM8.28201 0.500467L8.2832 0.5H8.28228L8.28201 0.500467ZM9.35691 0.5L11.2354 5.30486L13.1857 10.2933L17.2271 14.5828L20.0996 17.6317L21.7835 9.88708L23.8244 0.5H9.35691ZM25.5887 1.79885L23.7378 10.312L21.7183 19.6003L23.6807 24.2077L25.47 28.409L28.988 22.25L33.1291 15L28.988 7.75L25.5887 1.79885ZM23.7608 29.5L21.8406 24.9914L19.8233 20.255L15.7714 15.9543L12.9001 12.9067L11.2814 20.3807L9.30639 29.5H16.5646H23.7608ZM8.2832 29.5L8.28215 29.4998L8.28228 29.5H8.2832Z" fill="#FF8B36"/>
<path fill-rule="evenodd" clip-rule="evenodd" d="M7.64541 1.61498L9.37273 6.0331L11.2838 10.9211L9.32674 19.9573L7.54106 28.2023L4.14114 22.25L0 15L7.64541 1.61498ZM8.28201 0.500467L8.2832 0.5H8.28228L8.28201 0.500467ZM9.35691 0.5L11.2354 5.30486L13.1857 10.2933L17.2271 14.5828L20.0996 17.6317L21.7835 9.88708L23.8244 0.5H9.35691ZM25.5887 1.79885L23.7378 10.312L21.7183 19.6003L23.6807 24.2077L25.47 28.409L28.988 22.25L33.1291 15L28.988 7.75L25.5887 1.79885ZM23.7608 29.5L21.8406 24.9914L19.8233 20.255L15.7714 15.9543L12.9001 12.9067L11.2814 20.3807L9.30639 29.5H16.5646H23.7608ZM8.2832 29.5L8.28215 29.4998L8.28228 29.5H8.2832Z" fill="url(#paint0_linear_115_745)"/>
<defs>
<linearGradient id="paint0_linear_115_745" x1="16.5647" y1="0.5" x2="16.5647" y2="29.5005" gradientUnits="userSpaceOnUse">
<stop stop-color="#FF8B36"/>
<stop offset="1" stop-color="#FF3636"/>
<stop offset="1" stop-color="#FF4429"/>
</linearGradient>
</defs>
</svg>
