<svg width="144" height="24" viewBox="0 0 144 24" fill="none" xmlns="http://www.w3.org/2000/svg">
<path fill-rule="evenodd" clip-rule="evenodd" d="M7.02739 2.55199L8.21561 5.53509L9.57985 8.96009L8.16812 15.3581L6.92399 20.9966L4.63745 17.0674L1.60889 11.8632L7.02739 2.55199ZM7.66581 1.45494L7.66669 1.45459H7.66601L7.66581 1.45494ZM8.7431 1.45459L10.0736 4.79501L11.4793 8.32397L14.3968 11.3634L16.1559 13.196L17.2782 8.12918L18.7567 1.45459H8.7431ZM20.5226 2.73024L19.2309 8.56171L17.7746 15.1358L19.1719 18.3559L20.4051 21.198L22.8088 17.0674L25.8374 11.8632L22.8088 6.65887L20.5226 2.73024ZM18.6909 22.2717L17.3372 19.1521L15.8823 15.7992L12.9539 12.7484L11.1961 10.9171L10.1211 15.7891L8.69074 22.2717H13.7231H18.6909ZM7.66668 22.2717L7.66591 22.2715L7.66601 22.2717H7.66668Z" fill="white"/>
<path fill-rule="evenodd" clip-rule="evenodd" d="M7.02739 2.55199L8.21561 5.53509L9.57985 8.96009L8.16812 15.3581L6.92399 20.9966L4.63745 17.0674L1.60889 11.8632L7.02739 2.55199ZM7.66581 1.45494L7.66669 1.45459H7.66601L7.66581 1.45494ZM8.7431 1.45459L10.0736 4.79501L11.4793 8.32397L14.3968 11.3634L16.1559 13.196L17.2782 8.12918L18.7567 1.45459H8.7431ZM20.5226 2.73024L19.2309 8.56171L17.7746 15.1358L19.1719 18.3559L20.4051 21.198L22.8088 17.0674L25.8374 11.8632L22.8088 6.65887L20.5226 2.73024ZM18.6909 22.2717L17.3372 19.1521L15.8823 15.7992L12.9539 12.7484L11.1961 10.9171L10.1211 15.7891L8.69074 22.2717H13.7231H18.6909ZM7.66668 22.2717L7.66591 22.2715L7.66601 22.2717H7.66668Z" fill="url(#paint0_linear_266_5947)"/>
<path d="M42.363 18.8319L36.7011 9.56466H36.6415L36.721 18.8319H33.4232V4.66082H37.2971L42.9391 13.9081H42.9987L42.9193 4.66082H46.2171V18.8319H42.363Z" fill="white"/>
<path d="M54.7802 14.4885H54.363C54.0054 14.4885 53.6412 14.5085 53.2704 14.5486C52.9128 14.5753 52.5883 14.6353 52.2969 14.7287C52.0188 14.8221 51.787 14.9622 51.6016 15.149C51.4162 15.3225 51.3235 15.556 51.3235 15.8496C51.3235 16.0364 51.3632 16.1965 51.4427 16.33C51.5354 16.4634 51.6479 16.5702 51.7804 16.6502C51.9128 16.7303 52.0651 16.7903 52.2373 16.8304C52.4095 16.857 52.575 16.8704 52.734 16.8704C53.3962 16.8704 53.8995 16.6902 54.2438 16.33C54.6014 15.9563 54.7802 15.4559 54.7802 14.8288V14.4885ZM48.8005 10.2252C49.3832 9.66474 50.0587 9.24441 50.8268 8.96419C51.6082 8.68397 52.4029 8.54386 53.2108 8.54386C54.0451 8.54386 54.7471 8.65061 55.3166 8.86411C55.8993 9.06427 56.3695 9.38452 56.7271 9.82487C57.0847 10.2519 57.3429 10.799 57.5019 11.4662C57.674 12.12 57.7601 12.9006 57.7601 13.808V18.8319H54.7802V17.7711H54.7206C54.469 18.1848 54.0849 18.505 53.5684 18.7318C53.0651 18.9587 52.5154 19.0721 51.9195 19.0721C51.5221 19.0721 51.1116 19.0187 50.6877 18.912C50.2639 18.8052 49.8732 18.6318 49.5156 18.3916C49.1713 18.1514 48.8865 17.8311 48.6614 17.4308C48.4362 17.0305 48.3237 16.5368 48.3237 15.9497C48.3237 15.2291 48.5157 14.6486 48.8998 14.2083C49.2971 13.768 49.8004 13.4277 50.4096 13.1875C51.0321 12.9473 51.7208 12.7872 52.4757 12.7071C53.2306 12.6271 53.9657 12.587 54.6809 12.587V12.4269C54.6809 11.9332 54.5087 11.5729 54.1643 11.3461C53.82 11.1059 53.3962 10.9858 52.8929 10.9858C52.4294 10.9858 51.9791 11.0859 51.542 11.286C51.1182 11.4862 50.754 11.7264 50.4494 12.0066L48.8005 10.2252Z" fill="white"/>
<path d="M72.8268 18.8319V13.3877C72.8268 13.1074 72.8069 12.8406 72.7672 12.587C72.7275 12.3202 72.6546 12.0933 72.5487 11.9065C72.4427 11.7197 72.297 11.5729 72.1116 11.4662C71.9394 11.3461 71.7077 11.286 71.4163 11.286C71.1382 11.286 70.8932 11.3461 70.6812 11.4662C70.4826 11.5862 70.3104 11.7464 70.1647 11.9465C70.0323 12.1467 69.933 12.3802 69.8667 12.6471C69.8005 12.9006 69.7674 13.1675 69.7674 13.4477V18.8319H66.5093V13.1475C66.5093 12.5737 66.3968 12.12 66.1716 11.7864C65.9465 11.4528 65.5889 11.286 65.0988 11.286C64.5823 11.286 64.1784 11.4928 63.887 11.9065C63.6089 12.3202 63.4698 12.8272 63.4698 13.4277V18.8319H60.1919V8.86411H63.3506V10.2452H63.3903C63.5095 10.0317 63.6552 9.82487 63.8274 9.62471C64.0128 9.42455 64.2313 9.25108 64.483 9.1043C64.7346 8.94418 65.0128 8.81741 65.3174 8.724C65.6352 8.6306 65.9796 8.58389 66.3504 8.58389C67.0656 8.58389 67.6682 8.73068 68.1582 9.02424C68.6615 9.3178 69.0522 9.73813 69.3303 10.2852C69.6614 9.76482 70.0853 9.35116 70.6018 9.04425C71.1183 8.73735 71.7474 8.58389 72.4891 8.58389C73.1645 8.58389 73.7274 8.71066 74.1777 8.96419C74.6413 9.20438 75.0121 9.52463 75.2902 9.92494C75.5683 10.3119 75.767 10.7523 75.8862 11.246C76.0186 11.7264 76.0849 12.2001 76.0849 12.6671V18.8319H72.8268Z" fill="white"/>
<path d="M85.359 12.7071C85.359 12.1867 85.1934 11.7397 84.8623 11.3661C84.5445 10.9924 84.0611 10.8056 83.4121 10.8056C83.0942 10.8056 82.8029 10.859 82.538 10.9658C82.2731 11.0592 82.0413 11.1926 81.8427 11.3661C81.644 11.5395 81.4851 11.7464 81.3659 11.9866C81.2467 12.2134 81.1804 12.4536 81.1672 12.7071H85.359ZM88.3588 13.9681C88.3588 14.1016 88.3588 14.235 88.3588 14.3684C88.3588 14.5019 88.3522 14.6286 88.3389 14.7487H81.1672C81.1937 15.0289 81.2732 15.2825 81.4056 15.5093C81.5513 15.7362 81.7301 15.9363 81.942 16.1098C82.1671 16.2699 82.4122 16.3967 82.677 16.4901C82.9552 16.5835 83.2399 16.6302 83.5313 16.6302C84.0478 16.6302 84.4849 16.5368 84.8425 16.35C85.2 16.1498 85.4914 15.8963 85.7166 15.5894L87.9813 17.0305C87.5178 17.711 86.9019 18.2381 86.1338 18.6118C85.3788 18.972 84.4981 19.1522 83.4916 19.1522C82.7499 19.1522 82.0479 19.0388 81.3857 18.8119C80.7235 18.5717 80.1408 18.2315 79.6375 17.7911C79.1475 17.3374 78.7568 16.7837 78.4654 16.1298C78.1873 15.476 78.0482 14.7287 78.0482 13.8881C78.0482 13.0741 78.1873 12.3402 78.4654 11.6863C78.7435 11.0191 79.121 10.4587 79.5978 10.005C80.0746 9.53798 80.6374 9.17769 81.2864 8.92416C81.9354 8.67063 82.6373 8.54386 83.3922 8.54386C84.1207 8.54386 84.7895 8.67063 85.3987 8.92416C86.0079 9.16435 86.5311 9.51796 86.9681 9.98499C87.4052 10.452 87.7429 11.0191 87.9813 11.6863C88.233 12.3535 88.3588 13.1141 88.3588 13.9681Z" fill="white"/>
<path d="M97.988 8.34371C97.6966 7.97008 97.3126 7.67652 96.8358 7.46302C96.3722 7.23617 95.9219 7.12275 95.4849 7.12275C95.2597 7.12275 95.0279 7.14276 94.7895 7.1828C94.5644 7.22283 94.3591 7.30289 94.1737 7.42298C93.9883 7.52973 93.8293 7.67652 93.6969 7.86333C93.5777 8.0368 93.5181 8.26364 93.5181 8.54386C93.5181 8.78405 93.5645 8.98421 93.6572 9.14433C93.7631 9.30446 93.9088 9.44457 94.0942 9.56466C94.2929 9.68476 94.5247 9.79818 94.7895 9.90493C95.0544 9.99834 95.3524 10.0984 95.6835 10.2052C96.1603 10.3653 96.657 10.5454 97.1735 10.7456C97.69 10.9324 98.1602 11.1859 98.584 11.5062C99.0078 11.8264 99.3588 12.2267 99.6369 12.7071C99.915 13.1742 100.054 13.7613 100.054 14.4685C100.054 15.2825 99.9018 15.9897 99.5972 16.5902C99.3058 17.1773 98.9085 17.6643 98.4052 18.0513C97.9019 18.4383 97.3258 18.7252 96.6768 18.912C96.0279 19.0988 95.359 19.1922 94.6703 19.1922C93.6638 19.1922 92.6903 19.0187 91.75 18.6718C90.8097 18.3115 90.0283 17.8045 89.4058 17.1506L91.6308 14.8688C91.9752 15.2958 92.4255 15.6561 92.9817 15.9497C93.5512 16.2299 94.1141 16.37 94.6703 16.37C94.922 16.37 95.167 16.3433 95.4054 16.2899C95.6438 16.2366 95.8491 16.1498 96.0212 16.0297C96.2067 15.9096 96.3523 15.7495 96.4583 15.5494C96.5643 15.3492 96.6172 15.109 96.6172 14.8288C96.6172 14.5619 96.551 14.3351 96.4186 14.1483C96.2861 13.9614 96.0941 13.7946 95.8424 13.6479C95.6041 13.4877 95.2994 13.3476 94.9286 13.2275C94.571 13.0941 94.1604 12.954 93.6969 12.8072C93.2466 12.6604 92.8029 12.487 92.3659 12.2868C91.942 12.0866 91.558 11.8331 91.2136 11.5262C90.8825 11.2059 90.611 10.8257 90.3991 10.3853C90.2004 9.93162 90.1011 9.38452 90.1011 8.74402C90.1011 7.95674 90.26 7.28287 90.5779 6.72243C90.8958 6.162 91.3129 5.70164 91.8295 5.34135C92.346 4.98107 92.9287 4.72087 93.5777 4.56074C94.2267 4.38727 94.8823 4.30054 95.5445 4.30054C96.3391 4.30054 97.147 4.44732 97.9681 4.74088C98.8025 5.03444 99.5309 5.46812 100.153 6.0419L97.988 8.34371Z" fill="white"/>
<path d="M105.536 11.326V15.129C105.536 15.5961 105.622 15.9497 105.795 16.1899C105.98 16.4167 106.305 16.5301 106.768 16.5301C106.927 16.5301 107.093 16.5168 107.265 16.4901C107.45 16.4634 107.602 16.4234 107.722 16.37L107.761 18.7719C107.536 18.8519 107.252 18.9187 106.907 18.972C106.563 19.0388 106.218 19.0721 105.874 19.0721C105.212 19.0721 104.656 18.9921 104.205 18.8319C103.755 18.6585 103.391 18.4183 103.113 18.1114C102.848 17.7911 102.656 17.4175 102.537 16.9905C102.417 16.5501 102.358 16.0631 102.358 15.5293V11.326H100.769V8.86411H102.338V6.24206H105.536V8.86411H107.861V11.326H105.536Z" fill="white"/>
<path d="M119.881 13.808C119.881 14.622 119.736 15.3625 119.444 16.0297C119.153 16.6836 118.755 17.244 118.252 17.711C117.749 18.1647 117.166 18.5183 116.504 18.7719C115.842 19.0254 115.133 19.1522 114.378 19.1522C113.637 19.1522 112.928 19.0254 112.253 18.7719C111.59 18.5183 111.008 18.1647 110.504 17.711C110.014 17.244 109.624 16.6836 109.332 16.0297C109.041 15.3625 108.895 14.622 108.895 13.808C108.895 12.994 109.041 12.2601 109.332 11.6063C109.624 10.9524 110.014 10.3986 110.504 9.94496C111.008 9.49127 111.59 9.14433 112.253 8.90414C112.928 8.66396 113.637 8.54386 114.378 8.54386C115.133 8.54386 115.842 8.66396 116.504 8.90414C117.166 9.14433 117.749 9.49127 118.252 9.94496C118.755 10.3986 119.153 10.9524 119.444 11.6063C119.736 12.2601 119.881 12.994 119.881 13.808ZM116.742 13.808C116.742 13.4877 116.689 13.1742 116.583 12.8673C116.477 12.5603 116.325 12.2935 116.126 12.0666C115.928 11.8264 115.683 11.633 115.391 11.4862C115.1 11.3394 114.762 11.266 114.378 11.266C113.994 11.266 113.656 11.3394 113.365 11.4862C113.074 11.633 112.829 11.8264 112.63 12.0666C112.445 12.2935 112.299 12.5603 112.193 12.8673C112.1 13.1742 112.054 13.4877 112.054 13.808C112.054 14.1282 112.1 14.4418 112.193 14.7487C112.299 15.0556 112.451 15.3359 112.65 15.5894C112.849 15.8296 113.094 16.0231 113.385 16.1698C113.676 16.3166 114.014 16.39 114.398 16.39C114.782 16.39 115.12 16.3166 115.411 16.1698C115.703 16.0231 115.948 15.8296 116.146 15.5894C116.345 15.3359 116.491 15.0556 116.583 14.7487C116.689 14.4418 116.742 14.1282 116.742 13.808Z" fill="white"/>
<path d="M128.44 18.8319V13.3877C128.44 13.1074 128.414 12.8406 128.361 12.587C128.321 12.3335 128.248 12.1133 128.142 11.9265C128.036 11.7264 127.884 11.5729 127.685 11.4662C127.5 11.3461 127.262 11.286 126.97 11.286C126.679 11.286 126.421 11.3461 126.195 11.4662C125.984 11.5729 125.805 11.7264 125.659 11.9265C125.513 12.1267 125.401 12.3602 125.321 12.6271C125.255 12.8806 125.222 13.1475 125.222 13.4277V18.8319H121.944V8.86411H125.103V10.2452H125.143C125.262 10.0317 125.414 9.82487 125.599 9.62471C125.798 9.41121 126.023 9.23107 126.275 9.08429C126.54 8.9375 126.825 8.81741 127.129 8.724C127.434 8.6306 127.758 8.58389 128.103 8.58389C128.765 8.58389 129.328 8.70399 129.791 8.94418C130.255 9.18436 130.626 9.49794 130.904 9.88491C131.195 10.2585 131.4 10.6922 131.52 11.1859C131.652 11.6797 131.718 12.1734 131.718 12.6671V18.8319H128.44Z" fill="white"/>
<path d="M141 12.7071C141 12.1867 140.834 11.7397 140.503 11.3661C140.185 10.9924 139.702 10.8056 139.053 10.8056C138.735 10.8056 138.444 10.859 138.179 10.9658C137.914 11.0592 137.682 11.1926 137.484 11.3661C137.285 11.5395 137.126 11.7464 137.007 11.9866C136.888 12.2134 136.821 12.4536 136.808 12.7071H141ZM144 13.9681C144 14.1016 144 14.235 144 14.3684C144 14.5019 143.993 14.6286 143.98 14.7487H136.808C136.835 15.0289 136.914 15.2825 137.047 15.5093C137.192 15.7362 137.371 15.9363 137.583 16.1098C137.808 16.2699 138.053 16.3967 138.318 16.4901C138.596 16.5835 138.881 16.6302 139.172 16.6302C139.689 16.6302 140.126 16.5368 140.483 16.35C140.841 16.1498 141.132 15.8963 141.358 15.5894L143.622 17.0305C143.159 17.711 142.543 18.2381 141.775 18.6118C141.02 18.972 140.139 19.1522 139.133 19.1522C138.391 19.1522 137.689 19.0388 137.027 18.8119C136.364 18.5717 135.782 18.2315 135.278 17.7911C134.788 17.3374 134.398 16.7837 134.106 16.1298C133.828 15.476 133.689 14.7287 133.689 13.8881C133.689 13.0741 133.828 12.3402 134.106 11.6863C134.384 11.0191 134.762 10.4587 135.239 10.005C135.716 9.53798 136.278 9.17769 136.927 8.92416C137.576 8.67063 138.278 8.54386 139.033 8.54386C139.762 8.54386 140.43 8.67063 141.04 8.92416C141.649 9.16435 142.172 9.51796 142.609 9.98499C143.046 10.452 143.384 11.0191 143.622 11.6863C143.874 12.3535 144 13.1141 144 13.9681Z" fill="white"/>
<defs>
<linearGradient id="paint0_linear_266_5947" x1="13.7232" y1="1.45459" x2="13.7232" y2="22.2721" gradientUnits="userSpaceOnUse">
<stop stop-color="white"/>
<stop offset="0.828125" stop-color="white"/>
<stop offset="1" stop-color="white"/>
</linearGradient>
</defs>
</svg>
