<svg width="179" height="30" viewBox="0 0 179 30" fill="none" xmlns="http://www.w3.org/2000/svg">
<path fill-rule="evenodd" clip-rule="evenodd" d="M7.64541 1.61498L9.37273 6.0331L11.2838 10.9211L9.32674 19.9573L7.54106 28.2023L4.14114 22.25L0 15L7.64541 1.61498ZM8.28201 0.500467L8.2832 0.5H8.28228L8.28201 0.500467ZM9.35691 0.5L11.2354 5.30486L13.1857 10.2933L17.2271 14.5828L20.0996 17.6317L21.7835 9.88708L23.8244 0.5H9.35691ZM25.5887 1.79885L23.7378 10.312L21.7183 19.6003L23.6807 24.2077L25.47 28.409L28.988 22.25L33.1291 15L28.988 7.75L25.5887 1.79885ZM23.7608 29.5L21.8406 24.9914L19.8233 20.255L15.7714 15.9543L12.9001 12.9067L11.2814 20.3807L9.30639 29.5H16.5646H23.7608ZM8.2832 29.5L8.28215 29.4998L8.28228 29.5H8.2832Z" fill="#FF8B36"/>
<path fill-rule="evenodd" clip-rule="evenodd" d="M7.64541 1.61498L9.37273 6.0331L11.2838 10.9211L9.32674 19.9573L7.54106 28.2023L4.14114 22.25L0 15L7.64541 1.61498ZM8.28201 0.500467L8.2832 0.5H8.28228L8.28201 0.500467ZM9.35691 0.5L11.2354 5.30486L13.1857 10.2933L17.2271 14.5828L20.0996 17.6317L21.7835 9.88708L23.8244 0.5H9.35691ZM25.5887 1.79885L23.7378 10.312L21.7183 19.6003L23.6807 24.2077L25.47 28.409L28.988 22.25L33.1291 15L28.988 7.75L25.5887 1.79885ZM23.7608 29.5L21.8406 24.9914L19.8233 20.255L15.7714 15.9543L12.9001 12.9067L11.2814 20.3807L9.30639 29.5H16.5646H23.7608ZM8.2832 29.5L8.28215 29.4998L8.28228 29.5H8.2832Z" fill="url(#paint0_linear_152_101)"/>
<path d="M52.6595 23.5392L45.6215 11.9552H45.5474L45.6462 23.5392H41.5469V5.82535H46.3624L53.3757 17.3844H53.4498L53.351 5.82535H57.4503V23.5392H52.6595Z" fill="#220A03"/>
<path d="M68.0948 18.11H67.5762C67.1317 18.11 66.6789 18.135 66.218 18.185C65.7735 18.2184 65.3701 18.2935 65.0079 18.4102C64.6622 18.527 64.3741 18.7021 64.1436 18.9356C63.9131 19.1525 63.7979 19.4444 63.7979 19.8113C63.7979 20.0448 63.8473 20.245 63.946 20.4118C64.0613 20.5786 64.2012 20.712 64.3659 20.8121C64.5305 20.9122 64.7198 20.9872 64.9338 21.0373C65.1479 21.0706 65.3537 21.0873 65.5512 21.0873C66.3744 21.0873 67 20.8621 67.428 20.4118C67.8725 19.9448 68.0948 19.3193 68.0948 18.5353V18.11ZM60.6616 12.7808C61.386 12.0803 62.2256 11.5548 63.1805 11.2046C64.1518 10.8543 65.1396 10.6792 66.1439 10.6792C67.1811 10.6792 68.0536 10.8126 68.7615 11.0795C69.4859 11.3297 70.0704 11.73 70.5149 12.2804C70.9594 12.8142 71.2804 13.498 71.478 14.332C71.692 15.1493 71.799 16.1251 71.799 17.2593V23.5392H68.0948V22.2132H68.0207C67.7079 22.7303 67.2305 23.1306 66.5884 23.4141C65.9628 23.6977 65.2796 23.8395 64.5387 23.8395C64.0448 23.8395 63.5345 23.7728 63.0076 23.6393C62.4808 23.5059 61.9952 23.289 61.5507 22.9888C61.1226 22.6886 60.7686 22.2883 60.4888 21.7879C60.2089 21.2875 60.069 20.6703 60.069 19.9364C60.069 19.0357 60.3077 18.3101 60.7851 17.7597C61.279 17.2093 61.9046 16.7839 62.6619 16.4837C63.4357 16.1835 64.2918 15.9833 65.2302 15.8832C66.1686 15.7832 67.0823 15.7331 67.9713 15.7331V15.533C67.9713 14.9158 67.7573 14.4655 67.3292 14.1819C66.9012 13.8817 66.3744 13.7315 65.7488 13.7315C65.1726 13.7315 64.6128 13.8566 64.0695 14.1068C63.5427 14.357 63.09 14.6573 62.7113 15.0075L60.6616 12.7808Z" fill="#220A03"/>
<path d="M90.5277 23.5392V16.7339C90.5277 16.3836 90.503 16.05 90.4536 15.7331C90.4042 15.3995 90.3137 15.116 90.182 14.8825C90.0503 14.6489 89.8692 14.4655 89.6387 14.332C89.4247 14.1819 89.1366 14.1068 88.7744 14.1068C88.4287 14.1068 88.1241 14.1819 87.8607 14.332C87.6137 14.4821 87.3997 14.6823 87.2186 14.9325C87.054 15.1827 86.9305 15.4746 86.8482 15.8082C86.7659 16.1251 86.7247 16.4587 86.7247 16.809V23.5392H82.6748V16.4337C82.6748 15.7164 82.5348 15.1493 82.2549 14.7323C81.9751 14.3153 81.5306 14.1068 80.9214 14.1068C80.2794 14.1068 79.7772 14.3654 79.415 14.8825C79.0693 15.3995 78.8965 16.0334 78.8965 16.7839V23.5392H74.8218V11.0795H78.7483V12.8058H78.7977C78.9458 12.5389 79.1269 12.2804 79.341 12.0302C79.5714 11.78 79.8431 11.5632 80.1559 11.3797C80.4687 11.1795 80.8144 11.0211 81.1931 10.9043C81.5882 10.7876 82.0162 10.7292 82.4772 10.7292C83.3662 10.7292 84.1153 10.9127 84.7244 11.2796C85.35 11.6466 85.8357 12.172 86.1814 12.8559C86.593 12.2054 87.1198 11.6883 87.7619 11.3046C88.404 10.921 89.186 10.7292 90.1079 10.7292C90.9475 10.7292 91.6472 10.8877 92.207 11.2046C92.7832 11.5048 93.2441 11.9051 93.5899 12.4055C93.9356 12.8892 94.1825 13.4397 94.3307 14.0568C94.4953 14.6573 94.5777 15.2494 94.5777 15.8332V23.5392H90.5277Z" fill="#220A03"/>
<path d="M106.106 15.8832C106.106 15.2327 105.9 14.674 105.489 14.2069C105.093 13.7399 104.493 13.5064 103.686 13.5064C103.291 13.5064 102.929 13.5731 102.599 13.7065C102.27 13.8233 101.982 13.9901 101.735 14.2069C101.488 14.4238 101.29 14.6823 101.142 14.9825C100.994 15.2661 100.912 15.5663 100.895 15.8832H106.106ZM109.835 17.4595C109.835 17.6263 109.835 17.7931 109.835 17.9599C109.835 18.1267 109.827 18.2851 109.81 18.4352H100.895C100.928 18.7855 101.027 19.1024 101.192 19.386C101.373 19.6695 101.595 19.9197 101.858 20.1366C102.138 20.3367 102.443 20.4952 102.772 20.6119C103.118 20.7287 103.472 20.7871 103.834 20.7871C104.476 20.7871 105.019 20.6703 105.464 20.4368C105.908 20.1866 106.271 19.8697 106.55 19.4861L109.366 21.2875C108.789 22.1381 108.024 22.797 107.069 23.264C106.131 23.7144 105.036 23.9395 103.785 23.9395C102.863 23.9395 101.99 23.7978 101.167 23.5142C100.344 23.214 99.6194 22.7886 98.9938 22.2382C98.3847 21.6711 97.899 20.9789 97.5368 20.1616C97.1911 19.3443 97.0182 18.4102 97.0182 17.3594C97.0182 16.3419 97.1911 15.4245 97.5368 14.6072C97.8825 13.7732 98.3517 13.0727 98.9444 12.5056C99.5371 11.9218 100.237 11.4714 101.043 11.1545C101.85 10.8376 102.723 10.6792 103.661 10.6792C104.567 10.6792 105.398 10.8376 106.155 11.1545C106.913 11.4548 107.563 11.8968 108.106 12.4806C108.649 13.0644 109.069 13.7732 109.366 14.6072C109.678 15.4412 109.835 16.392 109.835 17.4595Z" fill="#220A03"/>
<path d="M121.804 10.429C121.442 9.96193 120.965 9.59497 120.372 9.3281C119.796 9.04454 119.236 8.90276 118.693 8.90276C118.413 8.90276 118.125 8.92778 117.829 8.97782C117.549 9.02786 117.294 9.12794 117.063 9.27806C116.833 9.4115 116.635 9.59497 116.47 9.82849C116.322 10.0453 116.248 10.3289 116.248 10.6792C116.248 10.9794 116.306 11.2296 116.421 11.4297C116.553 11.6299 116.734 11.805 116.964 11.9552C117.211 12.1053 117.499 12.2471 117.829 12.3805C118.158 12.4972 118.528 12.6223 118.94 12.7558C119.533 12.9559 120.15 13.1811 120.792 13.4313C121.434 13.6648 122.019 13.9817 122.545 14.3821C123.072 14.7824 123.508 15.2828 123.854 15.8832C124.2 16.467 124.373 17.2009 124.373 18.085C124.373 19.1024 124.183 19.9865 123.805 20.737C123.443 21.4709 122.949 22.0798 122.323 22.5635C121.697 23.0472 120.981 23.4058 120.175 23.6393C119.368 23.8728 118.537 23.9896 117.68 23.9896C116.429 23.9896 115.219 23.7728 114.05 23.3391C112.881 22.8887 111.91 22.2549 111.136 21.4376L113.902 18.5854C114.33 19.1191 114.89 19.5695 115.581 19.9364C116.289 20.2867 116.989 20.4618 117.68 20.4618C117.993 20.4618 118.298 20.4285 118.594 20.3617C118.89 20.295 119.146 20.1866 119.36 20.0365C119.59 19.8864 119.771 19.6862 119.903 19.436C120.035 19.1858 120.101 18.8856 120.101 18.5353C120.101 18.2017 120.018 17.9182 119.854 17.6846C119.689 17.4511 119.45 17.2426 119.137 17.0592C118.841 16.859 118.462 16.6839 118.001 16.5337C117.557 16.3669 117.047 16.1918 116.47 16.0083C115.911 15.8249 115.359 15.608 114.816 15.3578C114.289 15.1076 113.812 14.7907 113.384 14.4071C112.972 14.0068 112.634 13.5314 112.371 12.981C112.124 12.4138 112.001 11.73 112.001 10.9294C112.001 9.94525 112.198 9.10292 112.593 8.40237C112.988 7.70182 113.507 7.12637 114.149 6.67602C114.791 6.22567 115.516 5.90041 116.322 5.70025C117.129 5.48342 117.944 5.375 118.767 5.375C119.755 5.375 120.759 5.55848 121.78 5.92543C122.817 6.29238 123.722 6.83448 124.496 7.5517L121.804 10.429Z" fill="#220A03"/>
<path d="M131.188 14.1569V18.9106C131.188 19.4944 131.295 19.9364 131.509 20.2366C131.739 20.5202 132.142 20.662 132.719 20.662C132.916 20.662 133.122 20.6453 133.336 20.6119C133.566 20.5786 133.756 20.5285 133.904 20.4618L133.953 23.4642C133.674 23.5643 133.32 23.6477 132.892 23.7144C132.463 23.7978 132.035 23.8395 131.607 23.8395C130.784 23.8395 130.093 23.7394 129.533 23.5392C128.973 23.3224 128.521 23.0222 128.175 22.6385C127.846 22.2382 127.607 21.7712 127.459 21.2374C127.31 20.687 127.236 20.0782 127.236 19.411V14.1569H125.261V11.0795H127.212V7.8019H131.188V11.0795H134.077V14.1569H131.188Z" fill="#220A03"/>
<path d="M149.019 17.2593C149.019 18.2768 148.838 19.2025 148.476 20.0365C148.113 20.8538 147.62 21.5543 146.994 22.1381C146.368 22.7052 145.644 23.1473 144.821 23.4642C143.998 23.7811 143.117 23.9395 142.178 23.9395C141.257 23.9395 140.376 23.7811 139.536 23.4642C138.713 23.1473 137.989 22.7052 137.363 22.1381C136.754 21.5543 136.268 20.8538 135.906 20.0365C135.544 19.2025 135.363 18.2768 135.363 17.2593C135.363 16.2418 135.544 15.3245 135.906 14.5072C136.268 13.6898 136.754 12.9976 137.363 12.4305C137.989 11.8634 138.713 11.4297 139.536 11.1295C140.376 10.8293 141.257 10.6792 142.178 10.6792C143.117 10.6792 143.998 10.8293 144.821 11.1295C145.644 11.4297 146.368 11.8634 146.994 12.4305C147.62 12.9976 148.113 13.6898 148.476 14.5072C148.838 15.3245 149.019 16.2418 149.019 17.2593ZM145.117 17.2593C145.117 16.859 145.051 16.467 144.92 16.0834C144.788 15.6998 144.599 15.3662 144.352 15.0826C144.105 14.7824 143.8 14.5405 143.438 14.357C143.076 14.1736 142.656 14.0818 142.178 14.0818C141.701 14.0818 141.281 14.1736 140.919 14.357C140.557 14.5405 140.252 14.7824 140.005 15.0826C139.775 15.3662 139.594 15.6998 139.462 16.0834C139.347 16.467 139.289 16.859 139.289 17.2593C139.289 17.6596 139.347 18.0516 139.462 18.4352C139.594 18.8189 139.783 19.1691 140.03 19.4861C140.277 19.7863 140.582 20.0281 140.944 20.2116C141.306 20.3951 141.726 20.4868 142.203 20.4868C142.681 20.4868 143.1 20.3951 143.463 20.2116C143.825 20.0281 144.129 19.7863 144.376 19.4861C144.623 19.1691 144.804 18.8189 144.92 18.4352C145.051 18.0516 145.117 17.6596 145.117 17.2593Z" fill="#220A03"/>
<path d="M159.658 23.5392V16.7339C159.658 16.3836 159.625 16.05 159.56 15.7331C159.51 15.4162 159.42 15.141 159.288 14.9075C159.156 14.6573 158.967 14.4655 158.72 14.332C158.489 14.1819 158.193 14.1068 157.831 14.1068C157.469 14.1068 157.148 14.1819 156.868 14.332C156.604 14.4655 156.382 14.6573 156.201 14.9075C156.02 15.1577 155.88 15.4496 155.781 15.7832C155.699 16.1001 155.658 16.4337 155.658 16.7839V23.5392H151.583V11.0795H155.51V12.8058H155.559C155.707 12.5389 155.897 12.2804 156.127 12.0302C156.374 11.7633 156.654 11.5382 156.967 11.3547C157.296 11.1712 157.65 11.0211 158.029 10.9043C158.407 10.7876 158.811 10.7292 159.239 10.7292C160.062 10.7292 160.761 10.8793 161.338 11.1795C161.914 11.4798 162.375 11.8718 162.721 12.3555C163.083 12.8225 163.338 13.3646 163.486 13.9817C163.651 14.5989 163.733 15.216 163.733 15.8332V23.5392H159.658Z" fill="#220A03"/>
<path d="M175.271 15.8832C175.271 15.2327 175.065 14.674 174.653 14.2069C174.258 13.7399 173.657 13.5064 172.851 13.5064C172.456 13.5064 172.093 13.5731 171.764 13.7065C171.435 13.8233 171.147 13.9901 170.9 14.2069C170.653 14.4238 170.455 14.6823 170.307 14.9825C170.159 15.2661 170.077 15.5663 170.06 15.8832H175.271ZM179 17.4595C179 17.6263 179 17.7931 179 17.9599C179 18.1267 178.991 18.2851 178.975 18.4352H170.06C170.093 18.7855 170.192 19.1024 170.356 19.386C170.538 19.6695 170.76 19.9197 171.023 20.1366C171.303 20.3367 171.608 20.4952 171.937 20.6119C172.283 20.7287 172.637 20.7871 172.999 20.7871C173.641 20.7871 174.184 20.6703 174.629 20.4368C175.073 20.1866 175.435 19.8697 175.715 19.4861L178.53 21.2875C177.954 22.1381 177.189 22.797 176.234 23.264C175.295 23.7144 174.201 23.9395 172.949 23.9395C172.027 23.9395 171.155 23.7978 170.332 23.5142C169.509 23.214 168.784 22.7886 168.159 22.2382C167.549 21.6711 167.064 20.9789 166.702 20.1616C166.356 19.3443 166.183 18.4102 166.183 17.3594C166.183 16.3419 166.356 15.4245 166.702 14.6072C167.047 13.7732 167.517 13.0727 168.109 12.5056C168.702 11.9218 169.402 11.4714 170.208 11.1545C171.015 10.8376 171.888 10.6792 172.826 10.6792C173.731 10.6792 174.563 10.8376 175.32 11.1545C176.077 11.4548 176.728 11.8968 177.271 12.4806C177.814 13.0644 178.234 13.7732 178.53 14.6072C178.843 15.4412 179 16.392 179 17.4595Z" fill="#220A03"/>
<defs>
<linearGradient id="paint0_linear_152_101" x1="16.5647" y1="0.5" x2="16.5647" y2="29.5005" gradientUnits="userSpaceOnUse">
<stop stop-color="#FF8B36"/>
<stop offset="1" stop-color="#FF3636"/>
<stop offset="1" stop-color="#FF4429"/>
</linearGradient>
</defs>
</svg>
