<svg width="111" height="30" viewBox="0 0 111 30" fill="none" xmlns="http://www.w3.org/2000/svg">
<g clip-path="url(#clip0_1162_11006)">
<path d="M11.4975 22.972C9.36108 22.972 7.48925 22.5023 5.88189 21.5628C4.29487 20.6233 3.04366 19.3264 2.12804 17.6722C1.23285 15.9975 0.785156 14.0675 0.785156 11.8822C0.785156 9.69692 1.23285 7.77719 2.12804 6.12284C3.04366 4.44815 4.29487 3.1411 5.88189 2.20163C7.48925 1.26213 9.36108 0.792399 11.4975 0.792399C13.6135 0.792399 15.4752 1.26213 17.0825 2.20163C18.6899 3.1411 19.9412 4.44815 20.8364 6.12284C21.7316 7.77719 22.1793 9.69692 22.1793 11.8822C22.1793 14.0675 21.7316 15.9975 20.8364 17.6722C19.9412 19.3264 18.6899 20.6233 17.0825 21.5628C15.4752 22.5023 13.6135 22.972 11.4975 22.972ZM11.4975 19.449C13.5321 19.449 15.1497 18.7751 16.3501 17.4271C17.5709 16.0792 18.1812 14.2309 18.1812 11.8822C18.1812 9.53352 17.5709 7.68526 16.3501 6.33733C15.1497 4.98935 13.5321 4.31543 11.4975 4.31543C9.46286 4.31543 7.83516 4.98935 6.6144 6.33733C5.39363 7.68526 4.78325 9.53352 4.78325 11.8822C4.78325 14.2309 5.39363 16.0792 6.6144 17.4271C7.83516 18.7751 9.46286 19.449 11.4975 19.449ZM32.6784 22.972C31.539 22.972 30.542 22.7575 29.6874 22.3287C28.833 21.8998 28.1412 21.2973 27.6122 20.5213L27.185 22.6044H23.7057V0.547363H27.6122V9.58461C28.1005 8.91068 28.7414 8.31839 29.535 7.80778C30.3486 7.29721 31.3965 7.04192 32.6784 7.04192C34.1026 7.04192 35.3744 7.38914 36.4933 8.08349C37.6123 8.77791 38.4973 9.72758 39.1485 10.9326C39.7996 12.1375 40.125 13.5058 40.125 15.0376C40.125 16.5694 39.7996 17.9377 39.1485 19.1426C38.4973 20.3272 37.6123 21.2667 36.4933 21.9611C35.3744 22.6351 34.1026 22.972 32.6784 22.972ZM31.8543 19.5409C33.0956 19.5409 34.1231 19.1222 34.9367 18.2849C35.7507 17.4476 36.1575 16.3652 36.1575 15.0376C36.1575 13.7101 35.7507 12.6175 34.9367 11.7597C34.1231 10.9019 33.0956 10.473 31.8543 10.473C30.5929 10.473 29.5554 10.9019 28.7414 11.7597C27.9479 12.597 27.5511 13.6795 27.5511 15.0069C27.5511 16.3345 27.9479 17.4271 28.7414 18.2849C29.5554 19.1222 30.5929 19.5409 31.8543 19.5409ZM45.1283 22.6044L39.5737 7.40956H43.6632L47.5086 18.8976L51.3541 7.40956H55.4439L49.8588 22.6044H45.1283Z" fill="#010405"/>
<path d="M72.2402 22.9721C70.7754 22.9721 69.4527 22.6351 68.2728 21.9611C67.1129 21.2872 66.1874 20.358 65.4953 19.1734C64.8241 17.9684 64.4883 16.5796 64.4883 15.007C64.4883 13.4345 64.8341 12.0559 65.5262 10.8713C66.2178 9.66631 67.1434 8.72693 68.3033 8.05288C69.4832 7.37896 70.8059 7.04199 72.2707 7.04199C73.7154 7.04199 75.0177 7.37896 76.1776 8.05288C77.3579 8.72693 78.2827 9.66631 78.9543 10.8713C79.6459 12.0559 79.9922 13.4345 79.9922 15.007C79.9922 16.5796 79.6459 17.9684 78.9543 19.1734C78.2827 20.358 77.3579 21.2872 76.1776 21.9611C74.9973 22.6351 73.6849 22.9721 72.2402 22.9721ZM72.2402 19.5716C73.2577 19.5716 74.1427 19.1938 74.8949 18.4381C75.648 17.6621 76.0243 16.5184 76.0243 15.007C76.0243 13.4957 75.648 12.3623 74.8949 11.6066C74.1427 10.8305 73.2677 10.4424 72.2707 10.4424C71.2332 10.4424 70.3377 10.8305 69.5851 11.6066C68.8525 12.3623 68.4862 13.4957 68.4862 15.007C68.4862 16.5184 68.8525 17.6621 69.5851 18.4381C70.3377 19.1938 71.2228 19.5716 72.2402 19.5716ZM96.2419 7.40963V22.6045H92.7932L92.4883 20.0311C92.0205 20.9298 91.3388 21.6445 90.4438 22.1756C89.5687 22.7066 88.5308 22.9721 87.3309 22.9721C85.4589 22.9721 84.0037 22.3799 82.9662 21.1953C81.9283 20.0107 81.41 18.2748 81.41 15.9873V7.40963H85.3156V15.6197C85.3156 16.9269 85.5804 17.9276 86.1096 18.6219C86.6392 19.3163 87.4629 19.6635 88.5818 19.6635C89.6803 19.6635 90.5754 19.2755 91.2674 18.4994C91.9795 17.7233 92.3354 16.6409 92.3354 15.2522V7.40963H96.2419ZM104.647 22.9721C103.304 22.9721 102.124 22.7576 101.107 22.3288C100.089 21.8795 99.2757 21.2668 98.6655 20.4907C98.0545 19.7146 97.6886 18.816 97.567 17.7948H101.504C101.626 18.3871 101.951 18.8977 102.48 19.3265C103.029 19.735 103.731 19.9392 104.586 19.9392C105.441 19.9392 106.061 19.7657 106.448 19.4184C106.855 19.0713 107.059 18.673 107.059 18.2237C107.059 17.5702 106.773 17.131 106.203 16.9064C105.634 16.6614 104.84 16.4265 103.823 16.2018C103.172 16.0588 102.511 15.8853 101.839 15.681C101.168 15.4768 100.547 15.2215 99.9778 14.9151C99.4278 14.5884 98.9804 14.1799 98.635 13.6897C98.2884 13.1792 98.1159 12.5563 98.1159 11.8211C98.1159 10.4731 98.645 9.3396 99.7026 8.42052C100.781 7.50151 102.287 7.04199 104.22 7.04199C106.01 7.04199 107.434 7.46072 108.492 8.29804C109.571 9.13536 110.212 10.2893 110.415 11.7597H106.722C106.498 10.6365 105.654 10.0748 104.189 10.0748C103.457 10.0748 102.887 10.2178 102.48 10.5038C102.094 10.7896 101.9 11.147 101.9 11.5759C101.9 12.0253 102.195 12.3827 102.786 12.6481C103.376 12.9137 104.158 13.1588 105.135 13.3834C106.194 13.6285 107.16 13.9042 108.034 14.2105C108.93 14.4965 109.642 14.9356 110.171 15.5278C110.7 16.0997 110.964 16.9269 110.964 18.0093C110.985 18.9487 110.74 19.7963 110.232 20.5519C109.724 21.3076 108.991 21.8999 108.034 22.3288C107.079 22.7576 105.95 22.9721 104.647 22.9721Z" fill="#010405"/>
<path fill-rule="evenodd" clip-rule="evenodd" d="M62.383 7.22949H57.2773L58.1283 22.6045H61.532L62.383 7.22949ZM59.8157 29.3547C61.1032 29.3547 62.1471 28.307 62.1471 27.0146C62.1471 25.7221 61.1032 24.6744 59.8157 24.6744C58.5283 24.6744 57.4844 25.7221 57.4844 27.0146C57.4844 28.307 58.5283 29.3547 59.8157 29.3547Z" fill="#010405"/>
</g>
<defs>
<clipPath id="clip0_1162_11006">
<rect width="111" height="30" fill="white"/>
</clipPath>
</defs>
</svg>
