<svg width="20" height="20" viewBox="0 0 20 20" fill="none" xmlns="http://www.w3.org/2000/svg">
<g id="Icons">
<path id="Vector" d="M9.99917 16.6667H17.4992M13.6458 3.01836C13.9776 2.68661 14.4275 2.50024 14.8967 2.50024C15.3658 2.50024 15.8158 2.68661 16.1475 3.01836C16.4792 3.3501 16.6656 3.80004 16.6656 4.26919C16.6656 4.73834 16.4792 5.18828 16.1475 5.52002L6.13917 15.5292C5.94091 15.7274 5.69585 15.8725 5.42667 15.9509L3.03333 16.6492C2.96163 16.6701 2.88562 16.6714 2.81326 16.6528C2.7409 16.6343 2.67486 16.5966 2.62204 16.5438C2.56922 16.491 2.53157 16.425 2.51304 16.3526C2.4945 16.2802 2.49575 16.2042 2.51667 16.1325L3.215 13.7392C3.29352 13.4703 3.43854 13.2255 3.63667 13.0275L13.6458 3.01836Z" stroke="#171717" stroke-width="1.5" stroke-linecap="round" stroke-linejoin="round"/>
</g>
</svg>
