<svg width="80" height="80" viewBox="0 0 80 80" fill="none" xmlns="http://www.w3.org/2000/svg">
<g id="ph:address-book">
<g id="Vector">
<path d="M25.9969 54.5C26.2596 54.6975 26.5587 54.8412 26.8771 54.9229C27.1954 55.0047 27.5267 55.0229 27.8521 54.9764C28.1775 54.93 28.4905 54.8198 28.7733 54.6523C29.056 54.4847 29.303 54.2631 29.5 54C31.0136 51.9818 32.9764 50.3438 35.2328 49.2156C37.4892 48.0874 39.9773 47.5 42.5 47.5C45.0227 47.5 47.5108 48.0874 49.7672 49.2156C52.0236 50.3438 53.9864 51.9818 55.5 54C55.697 54.2626 55.9438 54.4839 56.2263 54.6512C56.5088 54.8185 56.8214 54.9284 57.1464 54.9749C57.4715 55.0213 57.8024 55.0033 58.1205 54.9218C58.4385 54.8403 58.7374 54.697 59 54.5C59.2626 54.303 59.4839 54.0562 59.6512 53.7737C59.8185 53.4912 59.9284 53.1786 59.9749 52.8536C60.0213 52.5285 60.0033 52.1976 59.9218 51.8795C59.8403 51.5615 59.697 51.2626 59.5 51C57.2863 48.0321 54.3343 45.6952 50.9375 44.2219C52.799 42.5223 54.1032 40.2997 54.679 37.8456C55.2547 35.3916 55.075 32.8208 54.1636 30.4707C53.2521 28.1206 51.6515 26.1009 49.5716 24.6768C47.4918 23.2527 45.03 22.4906 42.5094 22.4906C39.9887 22.4906 37.5269 23.2527 35.4471 24.6768C33.3673 26.1009 31.7666 28.1206 30.8552 30.4707C29.9437 32.8208 29.7641 35.3916 30.3398 37.8456C30.9155 40.2997 32.2197 42.5223 34.0812 44.2219C30.6776 45.6925 27.7189 48.0295 25.5 51C25.1018 51.53 24.9305 52.1965 25.0237 52.8529C25.1169 53.5092 25.4669 54.1017 25.9969 54.5ZM35 35C35 33.5166 35.4399 32.0666 36.264 30.8332C37.0881 29.5999 38.2594 28.6386 39.6299 28.0709C41.0003 27.5032 42.5083 27.3547 43.9632 27.6441C45.418 27.9335 46.7544 28.6478 47.8033 29.6967C48.8522 30.7456 49.5665 32.082 49.8559 33.5368C50.1453 34.9917 49.9968 36.4997 49.4291 37.8701C48.8614 39.2406 47.9001 40.4119 46.6668 41.236C45.4334 42.0601 43.9834 42.5 42.5 42.5C40.5109 42.5 38.6032 41.7098 37.1967 40.3033C35.7902 38.8968 35 36.9891 35 35ZM65 7.5H20C18.6739 7.5 17.4021 8.02678 16.4645 8.96447C15.5268 9.90215 15 11.1739 15 12.5V20H10C9.33696 20 8.70107 20.2634 8.23223 20.7322C7.76339 21.2011 7.5 21.837 7.5 22.5C7.5 23.163 7.76339 23.7989 8.23223 24.2678C8.70107 24.7366 9.33696 25 10 25H15V37.5H10C9.33696 37.5 8.70107 37.7634 8.23223 38.2322C7.76339 38.7011 7.5 39.337 7.5 40C7.5 40.663 7.76339 41.2989 8.23223 41.7678C8.70107 42.2366 9.33696 42.5 10 42.5H15V55H10C9.33696 55 8.70107 55.2634 8.23223 55.7322C7.76339 56.2011 7.5 56.837 7.5 57.5C7.5 58.163 7.76339 58.7989 8.23223 59.2678C8.70107 59.7366 9.33696 60 10 60H15V67.5C15 68.8261 15.5268 70.0979 16.4645 71.0355C17.4021 71.9732 18.6739 72.5 20 72.5H65C66.3261 72.5 67.5979 71.9732 68.5355 71.0355C69.4732 70.0979 70 68.8261 70 67.5V12.5C70 11.1739 69.4732 9.90215 68.5355 8.96447C67.5979 8.02678 66.3261 7.5 65 7.5ZM65 67.5H20V12.5H65V67.5Z" fill="white"/>
<path d="M25.9969 54.5C26.2596 54.6975 26.5587 54.8412 26.8771 54.9229C27.1954 55.0047 27.5267 55.0229 27.8521 54.9764C28.1775 54.93 28.4905 54.8198 28.7733 54.6523C29.056 54.4847 29.303 54.2631 29.5 54C31.0136 51.9818 32.9764 50.3438 35.2328 49.2156C37.4892 48.0874 39.9773 47.5 42.5 47.5C45.0227 47.5 47.5108 48.0874 49.7672 49.2156C52.0236 50.3438 53.9864 51.9818 55.5 54C55.697 54.2626 55.9438 54.4839 56.2263 54.6512C56.5088 54.8185 56.8214 54.9284 57.1464 54.9749C57.4715 55.0213 57.8024 55.0033 58.1205 54.9218C58.4385 54.8403 58.7374 54.697 59 54.5C59.2626 54.303 59.4839 54.0562 59.6512 53.7737C59.8185 53.4912 59.9284 53.1786 59.9749 52.8536C60.0213 52.5285 60.0033 52.1976 59.9218 51.8795C59.8403 51.5615 59.697 51.2626 59.5 51C57.2863 48.0321 54.3343 45.6952 50.9375 44.2219C52.799 42.5223 54.1032 40.2997 54.679 37.8456C55.2547 35.3916 55.075 32.8208 54.1636 30.4707C53.2521 28.1206 51.6515 26.1009 49.5716 24.6768C47.4918 23.2527 45.03 22.4906 42.5094 22.4906C39.9887 22.4906 37.5269 23.2527 35.4471 24.6768C33.3673 26.1009 31.7666 28.1206 30.8552 30.4707C29.9437 32.8208 29.7641 35.3916 30.3398 37.8456C30.9155 40.2997 32.2197 42.5223 34.0812 44.2219C30.6776 45.6925 27.7189 48.0295 25.5 51C25.1018 51.53 24.9305 52.1965 25.0237 52.8529C25.1169 53.5092 25.4669 54.1017 25.9969 54.5ZM35 35C35 33.5166 35.4399 32.0666 36.264 30.8332C37.0881 29.5999 38.2594 28.6386 39.6299 28.0709C41.0003 27.5032 42.5083 27.3547 43.9632 27.6441C45.418 27.9335 46.7544 28.6478 47.8033 29.6967C48.8522 30.7456 49.5665 32.082 49.8559 33.5368C50.1453 34.9917 49.9968 36.4997 49.4291 37.8701C48.8614 39.2406 47.9001 40.4119 46.6668 41.236C45.4334 42.0601 43.9834 42.5 42.5 42.5C40.5109 42.5 38.6032 41.7098 37.1967 40.3033C35.7902 38.8968 35 36.9891 35 35ZM65 7.5H20C18.6739 7.5 17.4021 8.02678 16.4645 8.96447C15.5268 9.90215 15 11.1739 15 12.5V20H10C9.33696 20 8.70107 20.2634 8.23223 20.7322C7.76339 21.2011 7.5 21.837 7.5 22.5C7.5 23.163 7.76339 23.7989 8.23223 24.2678C8.70107 24.7366 9.33696 25 10 25H15V37.5H10C9.33696 37.5 8.70107 37.7634 8.23223 38.2322C7.76339 38.7011 7.5 39.337 7.5 40C7.5 40.663 7.76339 41.2989 8.23223 41.7678C8.70107 42.2366 9.33696 42.5 10 42.5H15V55H10C9.33696 55 8.70107 55.2634 8.23223 55.7322C7.76339 56.2011 7.5 56.837 7.5 57.5C7.5 58.163 7.76339 58.7989 8.23223 59.2678C8.70107 59.7366 9.33696 60 10 60H15V67.5C15 68.8261 15.5268 70.0979 16.4645 71.0355C17.4021 71.9732 18.6739 72.5 20 72.5H65C66.3261 72.5 67.5979 71.9732 68.5355 71.0355C69.4732 70.0979 70 68.8261 70 67.5V12.5C70 11.1739 69.4732 9.90215 68.5355 8.96447C67.5979 8.02678 66.3261 7.5 65 7.5ZM65 67.5H20V12.5H65V67.5Z" fill="url(#paint0_linear_524_12411)" fill-opacity="0.5"/>
</g>
</g>
<defs>
<linearGradient id="paint0_linear_524_12411" x1="66.5625" y1="40" x2="10.9375" y2="40" gradientUnits="userSpaceOnUse">
<stop stop-color="#FF8B36"/>
<stop offset="1" stop-color="#FF4429"/>
</linearGradient>
</defs>
</svg>
