<svg width="80" height="80" viewBox="0 0 80 80" fill="none" xmlns="http://www.w3.org/2000/svg">
<g id="ph:chats-circle">
<g id="Vector">
<path d="M72.4344 58.5406C74.1975 54.9565 75.0763 51.0022 74.997 47.0087C74.9177 43.0153 73.8827 39.0989 71.9787 35.5877C70.0746 32.0765 67.357 29.0726 64.0534 26.8276C60.7497 24.5826 56.9563 23.1618 52.9907 22.6843C51.6755 19.6185 49.76 16.8468 47.357 14.5327C44.9541 12.2186 42.1123 10.4089 38.9991 9.21007C35.8859 8.01127 32.5642 7.44768 29.2298 7.55251C25.8954 7.65734 22.6157 8.42846 19.584 9.82045C16.5522 11.2124 13.8297 13.1971 11.5769 15.6576C9.32404 18.1181 7.58643 21.0046 6.46643 24.147C5.34643 27.2894 4.86669 30.6242 5.05548 33.9549C5.24426 37.2856 6.09776 40.5448 7.56567 43.5406L5.17192 51.9218C4.95832 52.6716 4.94896 53.4649 5.14482 54.2195C5.34068 54.9742 5.73463 55.6628 6.28592 56.2141C6.83721 56.7654 7.52581 57.1593 8.28045 57.3552C9.03509 57.551 9.82836 57.5417 10.5782 57.3281L18.9594 54.9343C21.4885 56.176 24.209 56.9821 27.0063 57.3187C28.3397 60.4427 30.2958 63.2623 32.7551 65.6053C35.2144 67.9482 38.1254 69.7654 41.3103 70.946C44.4953 72.1266 47.8874 72.6458 51.2797 72.4718C54.6719 72.2979 57.9932 71.4345 61.0407 69.9343L69.4219 72.3281C70.1717 72.5417 70.965 72.551 71.7196 72.3552C72.4743 72.1593 73.1629 71.7653 73.7141 71.2141C74.2654 70.6628 74.6594 69.9742 74.8553 69.2195C75.0511 68.4649 75.0417 67.6716 74.8281 66.9218L72.4344 58.5406ZM19.2282 49.7593C18.9958 49.7593 18.7645 49.7909 18.5407 49.8531L10.2875 52.2124L12.6469 43.9593C12.8237 43.3305 12.7475 42.6576 12.4344 42.0843C10.1357 37.8641 9.43473 32.9569 10.4599 28.2619C11.4851 23.5668 14.1678 19.3985 18.0164 16.5206C21.865 13.6426 26.6218 12.2479 31.4151 12.592C36.2084 12.9361 40.7172 14.9959 44.1153 18.394C47.5134 21.7921 49.5732 26.3009 49.9173 31.0942C50.2614 35.8876 48.8667 40.6443 45.9888 44.493C43.1109 48.3416 38.9425 51.0243 34.2475 52.0494C29.5525 53.0746 24.6453 52.3736 20.425 50.0749C20.0592 49.8703 19.6474 49.7617 19.2282 49.7593ZM67.3531 58.9593L69.7125 67.2124L61.4594 64.8531C60.8306 64.6762 60.1576 64.7525 59.5844 65.0656C54.976 67.5728 49.5674 68.1707 44.5226 66.7306C39.4778 65.2906 35.1999 61.9277 32.6094 57.3656C36.0327 57.009 39.3454 55.9489 42.3396 54.2516C45.3338 52.5544 47.9449 50.2566 50.0092 47.5025C52.0734 44.7485 53.5462 41.5975 54.3351 38.2473C55.1241 34.8972 55.2121 31.4201 54.5938 28.0343C57.5895 28.7403 60.3818 30.1282 62.7534 32.0898C65.125 34.0515 67.0118 36.534 68.2671 39.3442C69.5223 42.1543 70.1121 45.2163 69.9904 48.2916C69.8687 51.3669 69.039 54.3727 67.5657 57.0749C67.2501 57.6508 67.1738 58.3277 67.3531 58.9593Z" fill="white"/>
<path d="M72.4344 58.5406C74.1975 54.9565 75.0763 51.0022 74.997 47.0087C74.9177 43.0153 73.8827 39.0989 71.9787 35.5877C70.0746 32.0765 67.357 29.0726 64.0534 26.8276C60.7497 24.5826 56.9563 23.1618 52.9907 22.6843C51.6755 19.6185 49.76 16.8468 47.357 14.5327C44.9541 12.2186 42.1123 10.4089 38.9991 9.21007C35.8859 8.01127 32.5642 7.44768 29.2298 7.55251C25.8954 7.65734 22.6157 8.42846 19.584 9.82045C16.5522 11.2124 13.8297 13.1971 11.5769 15.6576C9.32404 18.1181 7.58643 21.0046 6.46643 24.147C5.34643 27.2894 4.86669 30.6242 5.05548 33.9549C5.24426 37.2856 6.09776 40.5448 7.56567 43.5406L5.17192 51.9218C4.95832 52.6716 4.94896 53.4649 5.14482 54.2195C5.34068 54.9742 5.73463 55.6628 6.28592 56.2141C6.83721 56.7654 7.52581 57.1593 8.28045 57.3552C9.03509 57.551 9.82836 57.5417 10.5782 57.3281L18.9594 54.9343C21.4885 56.176 24.209 56.9821 27.0063 57.3187C28.3397 60.4427 30.2958 63.2623 32.7551 65.6053C35.2144 67.9482 38.1254 69.7654 41.3103 70.946C44.4953 72.1266 47.8874 72.6458 51.2797 72.4718C54.6719 72.2979 57.9932 71.4345 61.0407 69.9343L69.4219 72.3281C70.1717 72.5417 70.965 72.551 71.7196 72.3552C72.4743 72.1593 73.1629 71.7653 73.7141 71.2141C74.2654 70.6628 74.6594 69.9742 74.8553 69.2195C75.0511 68.4649 75.0417 67.6716 74.8281 66.9218L72.4344 58.5406ZM19.2282 49.7593C18.9958 49.7593 18.7645 49.7909 18.5407 49.8531L10.2875 52.2124L12.6469 43.9593C12.8237 43.3305 12.7475 42.6576 12.4344 42.0843C10.1357 37.8641 9.43473 32.9569 10.4599 28.2619C11.4851 23.5668 14.1678 19.3985 18.0164 16.5206C21.865 13.6426 26.6218 12.2479 31.4151 12.592C36.2084 12.9361 40.7172 14.9959 44.1153 18.394C47.5134 21.7921 49.5732 26.3009 49.9173 31.0942C50.2614 35.8876 48.8667 40.6443 45.9888 44.493C43.1109 48.3416 38.9425 51.0243 34.2475 52.0494C29.5525 53.0746 24.6453 52.3736 20.425 50.0749C20.0592 49.8703 19.6474 49.7617 19.2282 49.7593ZM67.3531 58.9593L69.7125 67.2124L61.4594 64.8531C60.8306 64.6762 60.1576 64.7525 59.5844 65.0656C54.976 67.5728 49.5674 68.1707 44.5226 66.7306C39.4778 65.2906 35.1999 61.9277 32.6094 57.3656C36.0327 57.009 39.3454 55.9489 42.3396 54.2516C45.3338 52.5544 47.9449 50.2566 50.0092 47.5025C52.0734 44.7485 53.5462 41.5975 54.3351 38.2473C55.1241 34.8972 55.2121 31.4201 54.5938 28.0343C57.5895 28.7403 60.3818 30.1282 62.7534 32.0898C65.125 34.0515 67.0118 36.534 68.2671 39.3442C69.5223 42.1543 70.1121 45.2163 69.9904 48.2916C69.8687 51.3669 69.039 54.3727 67.5657 57.0749C67.2501 57.6508 67.1738 58.3277 67.3531 58.9593Z" fill="url(#paint0_linear_524_12421)" fill-opacity="0.5"/>
</g>
</g>
<defs>
<linearGradient id="paint0_linear_524_12421" x1="71.152" y1="40.0224" x2="8.85437" y2="40.0224" gradientUnits="userSpaceOnUse">
<stop stop-color="#FF8B36"/>
<stop offset="1" stop-color="#FF4429"/>
</linearGradient>
</defs>
</svg>
