<svg width="16" height="16" viewBox="0 0 16 16" fill="none" xmlns="http://www.w3.org/2000/svg">
<g id="Group">
<path id="Vector" d="M2.64583 11.3465C1.57552 12.2456 1.21875 14.9142 1.21875 14.9142C1.21875 14.9142 3.8874 14.5575 4.78646 13.4872C5.29307 12.8878 5.28594 11.9673 4.72224 11.4108C4.44489 11.146 4.07955 10.9931 3.69633 10.9812C3.31311 10.9694 2.93901 11.0995 2.64583 11.3465ZM7.9974 10.2762L5.85677 8.13559C6.23648 7.1505 6.71459 6.20622 7.28385 5.3171C8.11526 3.98777 9.27294 2.89324 10.6468 2.13763C12.0206 1.38202 13.5649 0.990452 15.1328 1.00018C15.1328 2.94101 14.5763 6.35174 10.8516 8.84914C9.95016 9.41885 8.99401 9.89693 7.9974 10.2762Z" stroke="#171717" stroke-width="1.5" stroke-linecap="round" stroke-linejoin="round"/>
<path id="Vector_2" d="M5.85677 8.13539H2.28906C2.28906 8.13539 2.68151 5.97336 3.71615 5.28122C4.87208 4.5106 7.28385 5.28122 7.28385 5.28122M7.9974 10.276V13.8437C7.9974 13.8437 10.1594 13.4513 10.8516 12.4166C11.6222 11.2607 10.8516 8.84893 10.8516 8.84893" stroke="#171717" stroke-width="1.5" stroke-linecap="round" stroke-linejoin="round"/>
</g>
</svg>
