<svg width="52" height="52" viewBox="0 0 52 52" fill="none" xmlns="http://www.w3.org/2000/svg">
<g filter="url(#filter0_d_2665_2764)">
<rect x="6" y="2" width="40" height="40" rx="8" fill="#262626" shape-rendering="crispEdges"/>
<path d="M29.5 20C30.3284 20 31 19.3284 31 18.5C31 17.6716 30.3284 17 29.5 17C28.6716 17 28 17.6716 28 18.5C28 19.3284 28.6716 20 29.5 20Z" fill="white"/>
<path d="M19 26L24.18 20.348C24.033 19.875 24 19.523 24 19C24 18.0111 24.2932 17.0444 24.8427 16.2222C25.3921 15.3999 26.173 14.759 27.0866 14.3806C28.0002 14.0022 29.0055 13.9031 29.9755 14.0961C30.9454 14.289 31.8363 14.7652 32.5355 15.4645C33.2348 16.1637 33.711 17.0546 33.9039 18.0245C34.0969 18.9945 33.9978 19.9998 33.6194 20.9134C33.241 21.827 32.6001 22.6079 31.7779 23.1573C30.9556 23.7068 29.9889 24 29 24C28.477 24 28.132 23.99 27.658 23.842L26 25.5H24V27.5H22V29.5H19V26Z" stroke="white" stroke-width="2" stroke-linecap="round" stroke-linejoin="round"/>
</g>
<defs>
<filter id="filter0_d_2665_2764" x="0" y="0" width="52" height="52" filterUnits="userSpaceOnUse" color-interpolation-filters="sRGB">
<feFlood flood-opacity="0" result="BackgroundImageFix"/>
<feColorMatrix in="SourceAlpha" type="matrix" values="0 0 0 0 0 0 0 0 0 0 0 0 0 0 0 0 0 0 127 0" result="hardAlpha"/>
<feOffset dy="4"/>
<feGaussianBlur stdDeviation="3"/>
<feComposite in2="hardAlpha" operator="out"/>
<feColorMatrix type="matrix" values="0 0 0 0 0 0 0 0 0 0 0 0 0 0 0 0 0 0 0.09 0"/>
<feBlend mode="normal" in2="BackgroundImageFix" result="effect1_dropShadow_2665_2764"/>
<feBlend mode="normal" in="SourceGraphic" in2="effect1_dropShadow_2665_2764" result="shape"/>
</filter>
</defs>
</svg>
