<svg width="40" height="40" viewBox="0 0 40 40" fill="none" xmlns="http://www.w3.org/2000/svg">
<rect x="0.5" y="0.5" width="39" height="39" rx="7.5" fill="white"/>
<rect x="0.5" y="0.5" width="39" height="39" rx="7.5" stroke="#A3A3A3"/>
<path d="M28 20.5V15.818C28 14.125 28 13.278 27.732 12.602C27.302 11.515 26.39 10.658 25.235 10.252C24.517 10 23.617 10 21.818 10C18.67 10 17.096 10 15.838 10.441C13.818 11.151 12.223 12.651 11.468 14.554C11 15.737 11 17.219 11 20.182V22.727C11 25.797 11 27.331 11.848 28.397C12.092 28.7043 12.377 28.9727 12.703 29.202C13.81 29.982 15.39 30 18.5 30" stroke="#171717" stroke-width="2" stroke-linecap="round" stroke-linejoin="round"/>
<path d="M11 20C11 19.116 11.3512 18.2683 11.9762 17.6432C12.6013 17.0182 13.449 16.667 14.333 16.667C14.999 16.667 15.784 16.783 16.431 16.61C16.7137 16.5339 16.9714 16.3848 17.1784 16.1777C17.3853 15.9706 17.5342 15.7128 17.61 15.43C17.783 14.783 17.667 13.998 17.667 13.332C17.6673 12.4482 18.0185 11.6007 18.6436 10.9759C19.2686 10.351 20.1162 10 21 10M22.813 30C22.243 29.41 20 27.84 20 27C20 26.16 22.244 24.59 22.813 24M26.187 30C26.757 29.41 29 27.84 29 27C29 26.16 26.756 24.59 26.188 24" stroke="#171717" stroke-width="2" stroke-linecap="round" stroke-linejoin="round"/>
</svg>
