<svg width="18" height="18" viewBox="0 0 18 18" fill="none" xmlns="http://www.w3.org/2000/svg">
<g id="Group">
<path id="Vector" d="M5.66667 16.5H4C3.33696 16.5 2.70107 16.2366 2.23223 15.7678C1.76339 15.2989 1.5 14.663 1.5 14V13.1667H6.08333M13.1667 6.08333V3.16667C13.1667 2.83703 13.2644 2.5148 13.4476 2.24072C13.6307 1.96664 13.891 1.75301 14.1955 1.62687C14.5001 1.50072 14.8352 1.46772 15.1585 1.53203C15.4818 1.59633 15.7788 1.75507 16.0118 1.98816C16.2449 2.22124 16.4037 2.51822 16.468 2.84152C16.5323 3.16482 16.4993 3.49993 16.3731 3.80447C16.247 4.10902 16.0334 4.36931 15.7593 4.55245C15.4852 4.73559 15.163 4.83333 14.8333 4.83333H13.1667" stroke="#171717" stroke-width="1.5" stroke-linecap="round" stroke-linejoin="round"/>
<path id="Vector_2" d="M14.8307 1.5H5.66406C5.00102 1.5 4.36514 1.76339 3.8963 2.23223C3.42745 2.70107 3.16406 3.33696 3.16406 4V13.1667M6.4974 4.83333H9.83073M6.4974 8.16667H9.83073M14.3474 9.50833C14.6756 9.18013 15.1207 8.99575 15.5849 8.99575C16.049 8.99575 16.4942 9.18013 16.8224 9.50833C17.1506 9.83654 17.335 10.2817 17.335 10.7458C17.335 11.21 17.1506 11.6551 16.8224 11.9833L11.4974 17.3333H8.9974V14.8333L14.3474 9.50833Z" stroke="#171717" stroke-width="1.2" stroke-linecap="round" stroke-linejoin="round"/>
</g>
</svg>
